<svg xmlns="http://www.w3.org/2000/svg" xmlns:xlink="http://www.w3.org/1999/xlink" height="170" stroke-miterlimit="10" width="100" fill-rule="nonzero" stroke-linecap="round" stroke-linejoin="round" xmlns:v="https://vecta.io/nano"><defs><path d="M0 12C0 5.373 5.373 0 12 0h76c6.627 0 12 5.373 12 12v146c0 6.627-5.373 12-12 12H12c-6.627 0-12-5.373-12-12V12z" id="A"/><linearGradient gradientUnits="userSpaceOnUse" id="B" x1="18.153" x2="18.564" y1="13.118" y2="-.798"><stop offset="0"/><stop offset="1" stop-opacity="0"/></linearGradient><linearGradient gradientUnits="userSpaceOnUse" id="C" x1="17.438" x2="17.643" y1="151.88" y2="173.252"><stop offset="0"/><stop offset="1" stop-opacity="0"/></linearGradient><linearGradient gradientUnits="userSpaceOnUse" id="D" x1="50.693" x2="50.861" y1="120.132" y2="112.787"><stop offset="0" stop-opacity=".382"/><stop offset="1" stop-opacity="0"/></linearGradient><path id="E" d="M6.949 156a4 4 0 0 1 4-4h13a4 4 0 0 1 4 4v13a4 4 0 0 1-4 4h-13a4 4 0 0 1-4-4v-13z"/><path id="F" d="M7.906 113.344c-1.949 0-3.531 1.582-3.531 3.531v.25c0 1.949 1.582 3.531 3.531 3.531h13.938c1.949 0 3.531-1.582 3.531-3.531v-.25c0-1.949-1.582-3.531-3.531-3.531H7.906zm35.125 0c-1.949 0-3.531 1.582-3.531 3.531v.25c0 1.949 1.582 3.531 3.531 3.531h13.938c1.949 0 3.531-1.582 3.531-3.531v-.25c0-1.949-1.582-3.531-3.531-3.531H43.031zm34.844 0c-1.949 0-3.531 1.582-3.531 3.531v.25c0 1.949 1.582 3.531 3.531 3.531h13.969c1.949 0 3.531-1.582 3.531-3.531v-.25c0-1.949-1.582-3.531-3.531-3.531H77.875z"/></defs><use opacity=".2" xlink:href="#A"/><clipPath clip-rule="nonzero" id="G"><use xlink:href="#A"/></clipPath><g clip-path="url(#G)"><path d="M6.949-4a4 4 0 0 1 4-4h13a4 4 0 0 1 4 4V9a4 4 0 0 1-4 4h-13a4 4 0 0 1-4-4V-4z" fill="url(#B)" opacity=".364"/><use xlink:href="#E" fill="url(#C)" opacity=".334"/><path d="M32 155.421A3.42 3.42 0 0 1 35.421 152h17.157A3.42 3.42 0 0 1 56 155.421v.158A3.42 3.42 0 0 1 52.579 159H35.421A3.42 3.42 0 0 1 32 155.579v-.158z" opacity=".308"/></g><path d="M0 50h100v1.3H0V50z" opacity=".523"/><path d="M0 18h100v1.3H0V18z" opacity=".334"/><path d="M6.949 28a4 4 0 0 1 4-4h13a4 4 0 0 1 4 4v13a4 4 0 0 1-4 4h-13a4 4 0 0 1-4-4V28z" opacity=".599"/><path d="M32 27.207A3.21 3.21 0 0 1 35.207 24h53.586A3.21 3.21 0 0 1 92 27.207v.586A3.21 3.21 0 0 1 88.793 31H35.207A3.21 3.21 0 0 1 32 27.793v-.586z" opacity=".478"/><use xlink:href="#F" opacity="0"/><use xlink:href="#F" y="-107.813" fill="url(#D)" opacity="0"/><path d="M0 82h100v1.3H0V82z" opacity=".523"/><path d="M6.949 60a4 4 0 0 1 4-4h13a4 4 0 0 1 4 4v13a4 4 0 0 1-4 4h-13a4 4 0 0 1-4-4V60z" opacity=".8"/><path d="M32 59.455C32 57.547 33.547 56 35.455 56h35.089C72.453 56 74 57.547 74 59.455v.089C74 61.453 72.453 63 70.545 63H35.455C33.547 63 32 61.453 32 59.545v-.089z" opacity=".711"/><path d="M0 114h100v1.3H0V114z" opacity=".523"/><path d="M6.949 92a4 4 0 0 1 4-4h13a4 4 0 0 1 4 4v13a4 4 0 0 1-4 4h-13a4 4 0 0 1-4-4V92z" opacity=".808"/><path d="M32 91.49A3.49 3.49 0 0 1 35.49 88h43.02A3.49 3.49 0 0 1 82 91.49v.02A3.49 3.49 0 0 1 78.51 95H35.49A3.49 3.49 0 0 1 32 91.51v-.02z" opacity=".715"/><path d="M0 146h100v1.3H0V146z" opacity=".366"/><use xlink:href="#E" y="-32" opacity=".599"/><path d="M32 123.357A3.36 3.36 0 0 1 35.357 120h53.286A3.36 3.36 0 0 1 92 123.357v.286A3.36 3.36 0 0 1 88.643 127H35.357A3.36 3.36 0 0 1 32 123.643v-.286z" opacity=".478"/></svg>