<?xml version="1.0" encoding="UTF-8"?>
<svg height="600" width="800" xmlns="http://www.w3.org/2000/svg" xmlns:xlink="http://www.w3.org/1999/xlink">
    <g id="Notes" font-family="'LucidaGrande', 'Lucida Grande', sans-serif" font-size="13">
        <rect fill="white" height="600.0" width="800.0" x="0.0" y="0.0" />
        <g font-size="13">
            <text x="18.0" y="176.0">Small</text>
            <text x="18.0" y="376.0">Medium</text>
            <text x="18.0" y="576.0">Large</text>
        </g>
        <g font-size="9">
            <text x="250.0" y="30.0">Ultralight</text>
            <text x="450.0" y="30.0">Regular</text>
            <text x="650.0" y="30.0">Black</text>
            <text id="template-version" fill="#505050" text-anchor="end" x="785.0" y="575.0">Template v.3.0</text>
            <a href="https://github.com/swhitty/SwiftDraw">
                <text fill="#505050" text-anchor="end" x="785.0" y="590.0">https://github.com/swhitty/SwiftDraw</text>
            </a>
        </g>
    </g>
    <g id="Guides" stroke="rgb(39, 170, 225)" stroke-width="0.5">
        <path id="Capline-S" d="M18,76 l800,0" />
        <path id="H-reference" d="M85,145.755 L87.685,145.755 L113.369,79.287 L114.052,79.287 L114.052,76 L112.148,76 L85,145.755 Z M95.693,121.536 L130.996,121.536 L130.263,119.313 L96.474,119.313 L95.693,121.536 Z M139.15,145.755 L141.787,145.755 L114.638,76 L113.466,76 L113.466,79.287 L139.15,145.755 Z" stroke="none" />
        <path id="Baseline-S" d="M18,146 l800,0" />
        <path id="left-margin-Ultralight-S" d="M221,56 l0,110" />
        <path id="right-margin-Ultralight-S" d="M309,56 l0,110" />
        <path id="left-margin-Regular-S" d="M421,56 l0,110" />
        <path id="right-margin-Regular-S" d="M509,56 l0,110" />
        <path id="left-margin-Black-S" d="M621,56 l0,110" />
        <path id="right-margin-Black-S" d="M709,56 l0,110" />
        <path id="Capline-M" d="M18,276 l800,0" />
        <path id="Baseline-M" d="M18,346 l800,0" />
        <path id="Capline-L" d="M18,476 l800,0" />
        <path id="Baseline-L" d="M18,546 l800,0" />
    </g>
    <g id="Symbols">
        <g id="Ultralight-S">
            <path d="M297.864,91.496 C296.843,83.977 290.231,78.05 282.394,76.901 C281.07,76.706 276.059,76 264.454,76 L264.366,76 C252.758,76 250.264,76.706 248.943,76.901 C241.322,78.018 234.362,83.344 232.674,90.954 C231.866,94.702 231.778,98.858 231.927,102.667 C232.143,108.133 232.184,113.59 232.685,119.033 C233.029,122.649 233.633,126.237 234.494,129.766 C236.098,136.291 242.593,141.718 248.96,143.932 C255.774,146.242 263.103,146.624 270.124,145.041 C270.897,144.863 271.661,144.656 272.416,144.419 C274.122,143.883 276.12,143.282 277.59,142.223 C277.63,142.193 277.655,142.147 277.657,142.098 L277.657,136.821 C277.657,136.775 277.636,136.731 277.599,136.702 C277.561,136.672 277.512,136.661 277.465,136.673 C272.965,137.738 268.355,138.271 263.73,138.262 C255.768,138.262 253.63,134.517 253.014,132.96 C252.522,131.613 252.209,130.208 252.084,128.78 C252.082,128.731 252.103,128.684 252.141,128.653 C252.179,128.622 252.229,128.61 252.277,128.623 C256.701,129.681 261.237,130.215 265.787,130.215 C266.883,130.215 267.974,130.215 269.068,130.186 C273.647,130.058 278.471,129.824 282.975,128.955 C283.085,128.932 283.199,128.911 283.295,128.885 C290.397,127.532 297.158,123.285 297.847,112.54 C297.87,112.117 297.934,108.107 297.934,107.669 C297.94,106.176 298.421,97.082 297.864,91.496 Z M286.932,118.315 L279.463,118.315 L279.463,100.179 C279.463,96.361 277.859,94.416 274.592,94.416 C271.005,94.416 269.208,96.72 269.208,101.27 L269.208,111.195 L261.782,111.195 L261.782,101.267 C261.782,96.717 259.982,94.413 256.392,94.413 C253.149,94.413 251.527,96.361 251.521,100.179 L251.521,118.315 L244.063,118.315 L244.063,99.631 C244.063,95.81 245.046,92.777 247.012,90.531 C249.042,88.285 251.702,87.136 255.004,87.136 C258.827,87.136 261.718,88.594 263.643,91.505 L265.504,94.597 L267.365,91.505 C269.29,88.591 272.177,87.136 275.998,87.136 C279.294,87.136 281.957,88.288 283.99,90.531 C285.958,92.777 286.941,95.81 286.941,99.631 Z" />
        </g>
        <g id="Regular-S">
            <path d="M497.864,91.496 C496.843,83.977 490.231,78.05 482.394,76.901 C481.07,76.706 476.059,76 464.454,76 L464.366,76 C452.758,76 450.264,76.706 448.943,76.901 C441.322,78.018 434.362,83.344 432.674,90.954 C431.866,94.702 431.778,98.858 431.927,102.667 C432.143,108.133 432.184,113.59 432.685,119.033 C433.029,122.649 433.633,126.237 434.494,129.766 C436.098,136.291 442.593,141.718 448.96,143.932 C455.774,146.242 463.103,146.624 470.124,145.041 C470.897,144.863 471.661,144.656 472.416,144.419 C474.122,143.883 476.12,143.282 477.59,142.223 C477.63,142.193 477.655,142.147 477.657,142.098 L477.657,136.821 C477.657,136.775 477.636,136.731 477.599,136.702 C477.561,136.672 477.512,136.661 477.465,136.673 C472.965,137.738 468.355,138.271 463.73,138.262 C455.768,138.262 453.63,134.517 453.014,132.96 C452.522,131.613 452.209,130.208 452.084,128.78 C452.082,128.731 452.103,128.684 452.141,128.653 C452.179,128.622 452.229,128.61 452.277,128.623 C456.701,129.681 461.237,130.215 465.787,130.215 C466.883,130.215 467.974,130.215 469.068,130.186 C473.647,130.058 478.471,129.824 482.975,128.955 C483.085,128.932 483.199,128.911 483.295,128.885 C490.397,127.532 497.158,123.285 497.847,112.54 C497.87,112.117 497.934,108.107 497.934,107.669 C497.94,106.176 498.421,97.082 497.864,91.496 Z M486.932,118.315 L479.463,118.315 L479.463,100.179 C479.463,96.361 477.859,94.416 474.592,94.416 C471.005,94.416 469.208,96.72 469.208,101.27 L469.208,111.195 L461.782,111.195 L461.782,101.267 C461.782,96.717 459.982,94.413 456.392,94.413 C453.149,94.413 451.527,96.361 451.521,100.179 L451.521,118.315 L444.063,118.315 L444.063,99.631 C444.063,95.81 445.046,92.777 447.012,90.531 C449.042,88.285 451.702,87.136 455.004,87.136 C458.827,87.136 461.718,88.594 463.643,91.505 L465.504,94.597 L467.365,91.505 C469.29,88.591 472.177,87.136 475.998,87.136 C479.294,87.136 481.957,88.288 483.99,90.531 C485.958,92.777 486.941,95.81 486.941,99.631 Z" />
        </g>
        <g id="Black-S">
            <path d="M697.864,91.496 C696.843,83.977 690.231,78.05 682.394,76.901 C681.07,76.706 676.059,76 664.454,76 L664.366,76 C652.758,76 650.264,76.706 648.943,76.901 C641.322,78.018 634.362,83.344 632.674,90.954 C631.866,94.702 631.778,98.858 631.927,102.667 C632.143,108.133 632.184,113.59 632.685,119.033 C633.029,122.649 633.633,126.237 634.494,129.766 C636.098,136.291 642.593,141.718 648.96,143.932 C655.774,146.242 663.103,146.624 670.124,145.041 C670.897,144.863 671.661,144.656 672.416,144.419 C674.122,143.883 676.12,143.282 677.59,142.223 C677.63,142.193 677.655,142.147 677.657,142.098 L677.657,136.821 C677.657,136.775 677.636,136.731 677.599,136.702 C677.561,136.672 677.512,136.661 677.465,136.673 C672.965,137.738 668.355,138.271 663.73,138.262 C655.768,138.262 653.63,134.517 653.014,132.96 C652.522,131.613 652.209,130.208 652.084,128.78 C652.082,128.731 652.103,128.684 652.141,128.653 C652.179,128.622 652.229,128.61 652.277,128.623 C656.701,129.681 661.237,130.215 665.787,130.215 C666.883,130.215 667.974,130.215 669.068,130.186 C673.647,130.058 678.471,129.824 682.974,128.955 C683.085,128.932 683.199,128.911 683.295,128.885 C690.397,127.532 697.158,123.285 697.847,112.54 C697.87,112.117 697.934,108.107 697.934,107.669 C697.94,106.176 698.421,97.082 697.864,91.496 Z M686.932,118.315 L679.463,118.315 L679.463,100.179 C679.463,96.361 677.859,94.416 674.592,94.416 C671.005,94.416 669.208,96.72 669.208,101.27 L669.208,111.195 L661.782,111.195 L661.782,101.267 C661.782,96.717 659.982,94.413 656.392,94.413 C653.149,94.413 651.527,96.361 651.521,100.179 L651.521,118.315 L644.063,118.315 L644.063,99.631 C644.063,95.81 645.046,92.777 647.012,90.531 C649.042,88.285 651.702,87.136 655.004,87.136 C658.827,87.136 661.718,88.594 663.643,91.505 L665.504,94.597 L667.365,91.505 C669.29,88.591 672.177,87.136 675.998,87.136 C679.294,87.136 681.957,88.288 683.99,90.531 C685.958,92.777 686.941,95.81 686.941,99.631 Z" />
        </g>
    </g>
</svg>