<?xml version="1.0" encoding="UTF-8"?>
<svg height="600" width="800" xmlns="http://www.w3.org/2000/svg" xmlns:xlink="http://www.w3.org/1999/xlink">
    <g id="Notes" font-family="'LucidaGrande', 'Lucida Grande', sans-serif" font-size="13">
        <rect fill="white" height="600.0" width="800.0" x="0.0" y="0.0" />
        <g font-size="13">
            <text x="18.0" y="176.0">Small</text>
            <text x="18.0" y="376.0">Medium</text>
            <text x="18.0" y="576.0">Large</text>
        </g>
        <g font-size="9">
            <text x="250.0" y="30.0">Ultralight</text>
            <text x="450.0" y="30.0">Regular</text>
            <text x="650.0" y="30.0">Black</text>
            <text id="template-version" fill="#505050" text-anchor="end" x="785.0" y="575.0">Template v.3.0</text>
            <a href="https://github.com/swhitty/SwiftDraw">
                <text fill="#505050" text-anchor="end" x="785.0" y="590.0">https://github.com/swhitty/SwiftDraw</text>
            </a>
        </g>
    </g>
    <g id="Guides" stroke="rgb(39, 170, 225)" stroke-width="0.5">
        <path id="Capline-S" d="M18,76 l800,0" />
        <path id="H-reference" d="M85,145.755 L87.685,145.755 L113.369,79.287 L114.052,79.287 L114.052,76 L112.148,76 L85,145.755 Z M95.693,121.536 L130.996,121.536 L130.263,119.313 L96.474,119.313 L95.693,121.536 Z M139.15,145.755 L141.787,145.755 L114.638,76 L113.466,76 L113.466,79.287 L139.15,145.755 Z" stroke="none" />
        <path id="Baseline-S" d="M18,146 l800,0" />
        <path id="left-margin-Ultralight-S" d="M211,56 l0,110" />
        <path id="right-margin-Ultralight-S" d="M319,56 l0,110" />
        <path id="left-margin-Regular-S" d="M411,56 l0,110" />
        <path id="right-margin-Regular-S" d="M519,56 l0,110" />
        <path id="left-margin-Black-S" d="M611,56 l0,110" />
        <path id="right-margin-Black-S" d="M719,56 l0,110" />
        <path id="Capline-M" d="M18,276 l800,0" />
        <path id="Baseline-M" d="M18,346 l800,0" />
        <path id="Capline-L" d="M18,476 l800,0" />
        <path id="Baseline-L" d="M18,546 l800,0" />
    </g>
    <g id="Symbols">
        <g id="Ultralight-S">
            <path d="M231.851,82.483 C231.445,82.489 231.039,82.513 230.634,82.553 C227.414,82.924 224.511,84.643 222.732,87.636 C220.991,90.569 220.561,93.799 221.449,96.792 C222.337,99.785 224.491,102.503 227.676,104.656 C227.695,104.669 227.715,104.684 227.736,104.698 C230.471,106.348 233.206,107.423 236.124,107.996 C236.05,109.213 236.024,110.449 236.102,111.729 C236.334,115.554 237.703,119.065 239.754,122.176 L232.398,125.179 C232.022,125.331 231.722,125.626 231.564,126 C231.323,126.57 231.45,127.229 231.886,127.668 C232.171,127.956 232.559,128.118 232.964,128.119 C233.165,128.12 233.364,128.081 233.549,128.005 L241.65,124.692 C243.146,126.474 244.838,128.108 246.682,129.525 C246.753,129.58 246.831,129.622 246.903,129.68 L242.166,135.951 C241.681,136.624 241.822,137.561 242.485,138.061 C243.147,138.56 244.087,138.439 244.601,137.788 L249.419,131.413 C252.053,133.081 254.839,134.32 257.593,135.169 C258.999,137.812 261.765,139.522 265,139.522 C268.266,139.522 271.029,137.685 272.422,135.095 C275.15,134.235 277.907,132.995 280.516,131.332 L285.4,137.788 C285.771,138.281 286.404,138.502 287.001,138.346 C287.599,138.19 288.044,137.69 288.128,137.078 C288.183,136.678 288.077,136.273 287.835,135.951 L283.032,129.591 C283.062,129.564 283.097,129.55 283.127,129.522 C284.949,128.128 286.629,126.525 288.122,124.778 L296.024,128.002 C296.802,128.319 297.69,127.946 298.008,127.168 C298.163,126.793 298.162,126.372 298.006,125.999 C297.849,125.625 297.55,125.329 297.175,125.176 L290.047,122.269 C292.163,119.139 293.603,115.602 293.899,111.748 C293.997,110.463 293.988,109.213 293.928,107.986 C296.826,107.409 299.545,106.335 302.265,104.695 C302.284,104.683 302.305,104.667 302.324,104.654 C305.509,102.5 307.663,99.782 308.551,96.789 C309.439,93.797 309.009,90.567 307.267,87.633 C305.489,84.64 302.586,82.921 299.366,82.55 C298.961,82.506 298.555,82.483 298.148,82.481 C295.269,82.426 292.197,83.321 289.244,85.026 C287.071,86.28 285.118,88.205 283.585,90.301 C279.295,87.844 273.713,86.46 266.852,86.347 C266.227,86.337 265.603,86.337 264.978,86.347 C257.333,86.472 251.214,87.924 246.592,90.545 C246.58,90.531 246.576,90.503 246.563,90.489 C245.011,88.32 242.996,86.322 240.757,85.03 C237.804,83.325 234.731,82.433 231.852,82.485 Z M232.899,85.184 C234.941,85.338 237.188,86.049 239.421,87.338 C241.199,88.365 242.999,90.108 244.356,91.993 C243.721,92.458 243.113,92.958 242.534,93.491 C239.161,96.614 237.176,100.677 236.419,105.347 C233.922,104.833 231.585,103.901 229.144,102.433 C226.374,100.553 224.686,98.317 224.009,96.037 C223.33,93.749 223.615,91.375 225.027,88.998 C226.399,86.688 228.428,85.502 230.937,85.213 C231.589,85.141 232.246,85.132 232.899,85.185 Z M297.1,85.184 C297.754,85.13 298.411,85.14 299.063,85.211 C301.572,85.5 303.6,86.686 304.972,88.996 C306.384,91.374 306.669,93.747 305.99,96.035 C305.314,98.315 303.625,100.551 300.856,102.431 C298.444,103.881 296.133,104.804 293.67,105.323 C292.958,100.568 290.965,96.4 287.561,93.216 C287.012,92.705 286.436,92.225 285.834,91.778 C287.171,89.981 288.873,88.321 290.578,87.336 C292.812,86.047 295.059,85.337 297.1,85.182 Z M265.022,89.013 C265.617,89.003 266.212,89.003 266.808,89.013 C275.571,89.157 281.785,91.47 285.739,95.166 C289.956,99.109 291.761,104.701 291.235,111.545 C290.754,117.807 286.761,123.381 281.511,127.399 C278.967,129.347 276.148,130.829 273.351,131.907 C273.363,131.741 273.403,131.581 273.403,131.412 C273.413,127.026 269.988,123.297 265,123.297 C260.011,123.297 256.485,127.02 256.596,131.442 C256.601,131.628 256.648,131.798 256.663,131.981 C253.799,130.906 250.908,129.41 248.311,127.414 C243.09,123.401 239.146,117.833 238.764,111.567 C238.35,104.759 240.15,99.327 244.342,95.446 C248.534,91.566 255.29,89.172 265.022,89.013 Z M251.668,114.053 C249.449,114.053 247.647,115.851 247.647,118.074 C247.647,120.297 249.449,122.102 251.668,122.102 C253.888,122.102 255.689,120.297 255.689,118.074 C255.689,115.851 253.888,114.053 251.668,114.053 Z M278.368,114.094 C276.169,114.094 274.384,115.876 274.384,118.079 C274.384,120.281 276.169,122.07 278.368,122.07 C280.567,122.07 282.352,120.281 282.352,118.079 C282.352,115.876 280.567,114.094 278.368,114.094 Z M265,125.973 C268.753,125.973 270.739,128.312 270.732,131.41 C270.726,134.288 268.267,136.855 265,136.855 C261.638,136.855 259.353,134.791 259.267,131.38 C259.19,128.32 261.246,125.973 265,125.973 Z" />
        </g>
        <g id="Regular-S">
            <path d="M431.851,82.483 C431.445,82.489 431.039,82.513 430.634,82.553 C427.414,82.924 424.511,84.643 422.732,87.636 C420.991,90.569 420.561,93.799 421.449,96.792 C422.337,99.785 424.491,102.503 427.676,104.656 C427.695,104.669 427.715,104.684 427.736,104.698 C430.471,106.348 433.206,107.423 436.124,107.996 C436.05,109.213 436.024,110.449 436.102,111.729 C436.334,115.554 437.703,119.065 439.754,122.176 L432.398,125.179 C432.022,125.331 431.722,125.626 431.564,126 C431.323,126.57 431.45,127.229 431.886,127.668 C432.171,127.956 432.559,128.118 432.964,128.119 C433.165,128.12 433.364,128.081 433.549,128.005 L441.65,124.692 C443.146,126.474 444.838,128.108 446.681,129.525 C446.753,129.58 446.831,129.622 446.903,129.68 L442.166,135.951 C441.681,136.624 441.822,137.561 442.485,138.061 C443.147,138.56 444.087,138.439 444.601,137.788 L449.419,131.413 C452.053,133.081 454.839,134.32 457.593,135.169 C458.999,137.812 461.765,139.522 465,139.522 C468.266,139.522 471.029,137.685 472.422,135.095 C475.15,134.235 477.907,132.995 480.516,131.332 L485.4,137.788 C485.771,138.281 486.404,138.502 487.001,138.346 C487.599,138.19 488.044,137.69 488.128,137.078 C488.183,136.678 488.077,136.273 487.835,135.951 L483.032,129.591 C483.062,129.564 483.097,129.55 483.127,129.522 C484.949,128.128 486.629,126.525 488.122,124.778 L496.024,128.002 C496.802,128.319 497.69,127.946 498.008,127.168 C498.163,126.793 498.162,126.372 498.006,125.999 C497.849,125.625 497.55,125.329 497.175,125.176 L490.047,122.269 C492.163,119.139 493.603,115.602 493.899,111.748 C493.997,110.463 493.988,109.213 493.928,107.986 C496.826,107.409 499.545,106.335 502.265,104.695 C502.284,104.683 502.305,104.667 502.324,104.654 C505.509,102.5 507.663,99.782 508.551,96.789 C509.439,93.797 509.009,90.567 507.267,87.633 C505.489,84.64 502.586,82.921 499.366,82.55 C498.961,82.506 498.555,82.483 498.148,82.481 C495.269,82.426 492.197,83.321 489.244,85.026 C487.071,86.28 485.118,88.205 483.585,90.301 C479.295,87.844 473.713,86.46 466.852,86.347 C466.227,86.337 465.603,86.337 464.978,86.347 C457.333,86.472 451.214,87.924 446.592,90.545 C446.58,90.531 446.576,90.503 446.563,90.489 C445.011,88.32 442.996,86.322 440.757,85.03 C437.804,83.325 434.731,82.433 431.852,82.485 Z M432.899,85.184 C434.941,85.338 437.188,86.049 439.421,87.338 C441.199,88.365 442.999,90.108 444.356,91.993 C443.721,92.458 443.113,92.958 442.534,93.491 C439.161,96.614 437.176,100.677 436.419,105.347 C433.922,104.833 431.585,103.901 429.144,102.433 C426.374,100.553 424.686,98.317 424.009,96.037 C423.33,93.749 423.615,91.375 425.027,88.998 C426.399,86.688 428.428,85.502 430.937,85.213 C431.589,85.141 432.246,85.132 432.899,85.185 Z M497.1,85.184 C497.754,85.13 498.411,85.14 499.063,85.211 C501.572,85.5 503.6,86.686 504.972,88.996 C506.384,91.374 506.669,93.747 505.99,96.035 C505.314,98.315 503.625,100.551 500.856,102.431 C498.444,103.881 496.133,104.804 493.67,105.323 C492.958,100.568 490.965,96.4 487.561,93.216 C487.012,92.705 486.436,92.225 485.834,91.778 C487.171,89.981 488.873,88.321 490.578,87.336 C492.812,86.047 495.059,85.337 497.1,85.182 Z M465.022,89.013 C465.617,89.003 466.212,89.003 466.808,89.013 C475.571,89.157 481.785,91.47 485.739,95.166 C489.956,99.109 491.761,104.701 491.235,111.545 C490.754,117.807 486.761,123.381 481.511,127.399 C478.967,129.347 476.148,130.829 473.351,131.907 C473.363,131.741 473.403,131.581 473.403,131.412 C473.413,127.026 469.988,123.297 465,123.297 C460.011,123.297 456.485,127.02 456.596,131.442 C456.601,131.628 456.648,131.798 456.663,131.981 C453.799,130.906 450.908,129.41 448.311,127.414 C443.09,123.401 439.146,117.833 438.764,111.567 C438.35,104.759 440.15,99.327 444.342,95.446 C448.534,91.566 455.29,89.172 465.022,89.013 Z M451.668,114.053 C449.449,114.053 447.647,115.851 447.647,118.074 C447.647,120.297 449.449,122.102 451.668,122.102 C453.888,122.102 455.689,120.297 455.689,118.074 C455.689,115.851 453.888,114.053 451.668,114.053 Z M478.368,114.094 C476.169,114.094 474.384,115.876 474.384,118.079 C474.384,120.281 476.169,122.07 478.368,122.07 C480.567,122.07 482.352,120.281 482.352,118.079 C482.352,115.876 480.567,114.094 478.368,114.094 Z M465,125.973 C468.753,125.973 470.739,128.312 470.732,131.41 C470.726,134.288 468.267,136.855 465,136.855 C461.638,136.855 459.353,134.791 459.267,131.38 C459.19,128.32 461.246,125.973 465,125.973 Z" />
        </g>
        <g id="Black-S">
            <path d="M631.851,82.483 C631.445,82.489 631.039,82.513 630.634,82.553 C627.414,82.924 624.511,84.643 622.732,87.636 C620.991,90.569 620.561,93.799 621.449,96.792 C622.337,99.785 624.491,102.503 627.676,104.656 C627.695,104.669 627.715,104.684 627.736,104.698 C630.471,106.348 633.206,107.423 636.124,107.996 C636.05,109.213 636.024,110.449 636.102,111.729 C636.334,115.554 637.703,119.065 639.754,122.176 L632.398,125.179 C632.022,125.331 631.721,125.626 631.563,126 C631.323,126.57 631.45,127.229 631.886,127.668 C632.171,127.956 632.559,128.118 632.964,128.119 C633.165,128.12 633.363,128.081 633.549,128.005 L641.65,124.692 C643.146,126.474 644.838,128.108 646.681,129.525 C646.753,129.58 646.831,129.622 646.903,129.68 L642.166,135.951 C641.681,136.624 641.822,137.561 642.485,138.061 C643.147,138.56 644.087,138.439 644.601,137.788 L649.419,131.413 C652.053,133.081 654.839,134.32 657.593,135.169 C658.998,137.812 661.765,139.522 665,139.522 C668.266,139.522 671.029,137.685 672.422,135.095 C675.15,134.235 677.907,132.995 680.516,131.332 L685.4,137.788 C685.771,138.281 686.404,138.502 687.001,138.346 C687.599,138.19 688.044,137.69 688.127,137.078 C688.182,136.678 688.077,136.273 687.834,135.951 L683.032,129.591 C683.062,129.564 683.097,129.55 683.127,129.522 C684.949,128.128 686.629,126.525 688.122,124.778 L696.024,128.002 C696.802,128.319 697.69,127.946 698.008,127.168 C698.163,126.793 698.162,126.372 698.006,125.999 C697.849,125.625 697.55,125.329 697.175,125.176 L690.047,122.269 C692.163,119.139 693.603,115.602 693.899,111.748 C693.997,110.463 693.987,109.213 693.928,107.986 C696.826,107.409 699.545,106.335 702.265,104.695 C702.284,104.683 702.305,104.667 702.324,104.654 C705.508,102.5 707.663,99.782 708.551,96.789 C709.439,93.797 709.009,90.567 707.267,87.633 C705.489,84.64 702.586,82.921 699.366,82.55 C698.961,82.506 698.555,82.483 698.148,82.481 C695.269,82.426 692.197,83.321 689.244,85.026 C687.071,86.28 685.118,88.205 683.585,90.301 C679.295,87.844 673.713,86.46 666.852,86.347 C666.227,86.337 665.603,86.337 664.978,86.347 C657.333,86.472 651.214,87.924 646.592,90.545 C646.58,90.531 646.576,90.503 646.563,90.489 C645.011,88.32 642.995,86.322 640.757,85.03 C637.804,83.325 634.731,82.433 631.852,82.485 Z M632.899,85.184 C634.941,85.338 637.188,86.049 639.421,87.338 C641.199,88.365 642.999,90.108 644.356,91.993 C643.721,92.458 643.113,92.958 642.534,93.491 C639.161,96.614 637.176,100.677 636.418,105.347 C633.922,104.833 631.585,103.901 629.144,102.433 C626.374,100.553 624.686,98.317 624.009,96.037 C623.33,93.749 623.615,91.375 625.027,88.998 C626.399,86.688 628.428,85.502 630.937,85.213 C631.589,85.141 632.246,85.132 632.899,85.185 Z M697.1,85.184 C697.754,85.13 698.411,85.14 699.063,85.211 C701.572,85.5 703.6,86.686 704.972,88.996 C706.384,91.374 706.669,93.747 705.99,96.035 C705.314,98.315 703.625,100.551 700.855,102.431 C698.444,103.881 696.132,104.804 693.67,105.323 C692.958,100.568 690.965,96.4 687.561,93.216 C687.012,92.705 686.436,92.225 685.834,91.778 C687.171,89.981 688.873,88.321 690.578,87.336 C692.812,86.047 695.059,85.337 697.1,85.182 Z M665.022,89.013 C665.617,89.003 666.212,89.003 666.808,89.013 C675.571,89.157 681.785,91.47 685.739,95.166 C689.956,99.109 691.761,104.701 691.235,111.545 C690.754,117.807 686.761,123.381 681.511,127.399 C678.967,129.347 676.148,130.829 673.351,131.907 C673.363,131.741 673.403,131.581 673.403,131.412 C673.413,127.026 669.988,123.297 665,123.297 C660.011,123.297 656.485,127.02 656.596,131.442 C656.601,131.628 656.648,131.798 656.663,131.981 C653.799,130.906 650.908,129.41 648.311,127.414 C643.09,123.401 639.146,117.833 638.764,111.567 C638.35,104.759 640.15,99.327 644.342,95.446 C648.534,91.566 655.29,89.172 665.022,89.013 Z M651.668,114.053 C649.449,114.053 647.647,115.851 647.647,118.074 C647.647,120.297 649.449,122.102 651.668,122.102 C653.888,122.102 655.689,120.297 655.689,118.074 C655.689,115.851 653.888,114.053 651.668,114.053 Z M678.368,114.094 C676.169,114.094 674.384,115.876 674.384,118.079 C674.384,120.281 676.169,122.07 678.368,122.07 C680.567,122.07 682.352,120.281 682.352,118.079 C682.352,115.876 680.567,114.094 678.368,114.094 Z M665,125.973 C668.753,125.973 670.739,128.312 670.732,131.41 C670.726,134.288 668.267,136.855 665,136.855 C661.638,136.855 659.353,134.791 659.267,131.38 C659.19,128.32 661.246,125.973 665,125.973 Z" />
        </g>
    </g>
</svg>