<?xml version="1.0" encoding="UTF-8"?>
<svg height="600" width="800" xmlns="http://www.w3.org/2000/svg" xmlns:xlink="http://www.w3.org/1999/xlink">
    <g id="Notes" font-family="'LucidaGrande', 'Lucida Grande', sans-serif" font-size="13">
        <rect fill="white" height="600.0" width="800.0" x="0.0" y="0.0" />
        <g font-size="13">
            <text x="18.0" y="176.0">Small</text>
            <text x="18.0" y="376.0">Medium</text>
            <text x="18.0" y="576.0">Large</text>
        </g>
        <g font-size="9">
            <text x="250.0" y="30.0">Ultralight</text>
            <text x="450.0" y="30.0">Regular</text>
            <text x="650.0" y="30.0">Black</text>
            <text id="template-version" fill="#505050" text-anchor="end" x="785.0" y="575.0">Template v.3.0</text>
            <a href="https://github.com/swhitty/SwiftDraw">
                <text fill="#505050" text-anchor="end" x="785.0" y="590.0">https://github.com/swhitty/SwiftDraw</text>
            </a>
        </g>
    </g>
    <g id="Guides" stroke="rgb(39, 170, 225)" stroke-width="0.5">
        <path id="Capline-S" d="M18,76 l800,0" />
        <path id="H-reference" d="M85,145.755 L87.685,145.755 L113.369,79.287 L114.052,79.287 L114.052,76 L112.148,76 L85,145.755 Z M95.693,121.536 L130.996,121.536 L130.263,119.313 L96.474,119.313 L95.693,121.536 Z M139.15,145.755 L141.787,145.755 L114.638,76 L113.466,76 L113.466,79.287 L139.15,145.755 Z" stroke="none" />
        <path id="Baseline-S" d="M18,146 l800,0" />
        <path id="left-margin-Ultralight-S" d="M220,56 l0,110" />
        <path id="right-margin-Ultralight-S" d="M310,56 l0,110" />
        <path id="left-margin-Regular-S" d="M420,56 l0,110" />
        <path id="right-margin-Regular-S" d="M510,56 l0,110" />
        <path id="left-margin-Black-S" d="M620,56 l0,110" />
        <path id="right-margin-Black-S" d="M710,56 l0,110" />
        <path id="Capline-M" d="M18,276 l800,0" />
        <path id="Baseline-M" d="M18,346 l800,0" />
        <path id="Capline-L" d="M18,476 l800,0" />
        <path id="Baseline-L" d="M18,546 l800,0" />
    </g>
    <g id="Symbols">
        <g id="Ultralight-S">
            <path d="M231.844,77.602 L231.844,144.398 L236.65,144.398 L236.65,146 L230,146 L230,76 L236.65,76 L236.65,77.602 L231.844,77.602 Z" />
            <path d="M252.387,98.777 L252.387,102.156 L252.481,102.156 C253.383,100.863 254.473,99.867 255.738,99.167 C257.004,98.454 258.471,98.104 260.113,98.104 C261.688,98.104 263.129,98.413 264.435,99.019 C265.74,99.625 266.723,100.715 267.41,102.25 C268.15,101.16 269.16,100.19 270.425,99.356 C271.69,98.521 273.198,98.104 274.935,98.104 C276.254,98.104 277.479,98.265 278.61,98.588 C279.74,98.912 280.696,99.423 281.504,100.137 C282.312,100.85 282.931,101.765 283.388,102.91 C283.833,104.054 284.062,105.427 284.062,107.042 L284.062,123.748 L277.21,123.748 L277.21,109.6 C277.21,108.765 277.183,107.971 277.115,107.231 C277.048,106.49 276.873,105.844 276.59,105.306 C276.294,104.754 275.877,104.323 275.312,104 C274.746,103.677 273.979,103.515 273.023,103.515 C272.054,103.515 271.273,103.704 270.681,104.067 C270.088,104.444 269.617,104.915 269.281,105.521 C268.944,106.113 268.715,106.787 268.608,107.554 C268.5,108.308 268.433,109.075 268.433,109.842 L268.433,123.748 L261.581,123.748 L261.581,109.748 C261.581,109.008 261.567,108.281 261.527,107.554 C261.5,106.827 261.352,106.167 261.11,105.548 C260.867,104.942 260.463,104.444 259.898,104.081 C259.333,103.717 258.512,103.529 257.408,103.529 C257.085,103.529 256.654,103.596 256.129,103.744 C255.604,103.892 255.079,104.162 254.581,104.565 C254.083,104.969 253.652,105.548 253.302,106.302 C252.952,107.056 252.777,108.052 252.777,109.277 L252.777,123.762 L245.925,123.762 L245.925,98.777 L252.387,98.777 Z" />
            <path d="M298.156,144.398 L298.156,77.602 L293.35,77.602 L293.35,76 L300,76 L300,146 L293.35,146 L293.35,144.398 L298.156,144.398 Z" />
        </g>
        <g id="Regular-S">
            <path d="M431.844,77.602 L431.844,144.398 L436.65,144.398 L436.65,146 L430,146 L430,76 L436.65,76 L436.65,77.602 L431.844,77.602 Z" />
            <path d="M452.387,98.777 L452.387,102.156 L452.481,102.156 C453.383,100.863 454.473,99.867 455.738,99.167 C457.004,98.454 458.471,98.104 460.113,98.104 C461.688,98.104 463.129,98.413 464.435,99.019 C465.74,99.625 466.723,100.715 467.41,102.25 C468.15,101.16 469.16,100.19 470.425,99.356 C471.69,98.521 473.198,98.104 474.935,98.104 C476.254,98.104 477.479,98.265 478.61,98.588 C479.74,98.912 480.696,99.423 481.504,100.137 C482.312,100.85 482.931,101.765 483.388,102.91 C483.833,104.054 484.062,105.427 484.062,107.042 L484.062,123.748 L477.21,123.748 L477.21,109.6 C477.21,108.765 477.183,107.971 477.115,107.231 C477.048,106.49 476.873,105.844 476.59,105.306 C476.294,104.754 475.877,104.323 475.312,104 C474.746,103.677 473.979,103.515 473.023,103.515 C472.054,103.515 471.273,103.704 470.681,104.067 C470.088,104.444 469.617,104.915 469.281,105.521 C468.944,106.113 468.715,106.787 468.608,107.554 C468.5,108.308 468.433,109.075 468.433,109.842 L468.433,123.748 L461.581,123.748 L461.581,109.748 C461.581,109.008 461.567,108.281 461.527,107.554 C461.5,106.827 461.352,106.167 461.11,105.548 C460.867,104.942 460.463,104.444 459.898,104.081 C459.333,103.717 458.512,103.529 457.408,103.529 C457.085,103.529 456.654,103.596 456.129,103.744 C455.604,103.892 455.079,104.162 454.581,104.565 C454.083,104.969 453.652,105.548 453.302,106.302 C452.952,107.056 452.777,108.052 452.777,109.277 L452.777,123.762 L445.925,123.762 L445.925,98.777 L452.387,98.777 Z" />
            <path d="M498.156,144.398 L498.156,77.602 L493.35,77.602 L493.35,76 L500,76 L500,146 L493.35,146 L493.35,144.398 L498.156,144.398 Z" />
        </g>
        <g id="Black-S">
            <path d="M631.844,77.602 L631.844,144.398 L636.65,144.398 L636.65,146 L630,146 L630,76 L636.65,76 L636.65,77.602 L631.844,77.602 Z" />
            <path d="M652.387,98.777 L652.387,102.156 L652.481,102.156 C653.383,100.863 654.473,99.867 655.738,99.167 C657.004,98.454 658.471,98.104 660.113,98.104 C661.688,98.104 663.129,98.413 664.435,99.019 C665.74,99.625 666.723,100.715 667.41,102.25 C668.15,101.16 669.16,100.19 670.425,99.356 C671.69,98.521 673.198,98.104 674.935,98.104 C676.254,98.104 677.479,98.265 678.61,98.588 C679.74,98.912 680.696,99.423 681.504,100.137 C682.312,100.85 682.931,101.765 683.388,102.91 C683.833,104.054 684.062,105.427 684.062,107.042 L684.062,123.748 L677.21,123.748 L677.21,109.6 C677.21,108.765 677.183,107.971 677.115,107.231 C677.048,106.49 676.873,105.844 676.59,105.306 C676.294,104.754 675.877,104.323 675.312,104 C674.746,103.677 673.979,103.515 673.023,103.515 C672.054,103.515 671.273,103.704 670.681,104.067 C670.088,104.444 669.617,104.915 669.281,105.521 C668.944,106.113 668.715,106.787 668.608,107.554 C668.5,108.308 668.433,109.075 668.433,109.842 L668.433,123.748 L661.581,123.748 L661.581,109.748 C661.581,109.008 661.567,108.281 661.527,107.554 C661.5,106.827 661.352,106.167 661.11,105.548 C660.867,104.942 660.463,104.444 659.898,104.081 C659.333,103.717 658.512,103.529 657.408,103.529 C657.085,103.529 656.654,103.596 656.129,103.744 C655.604,103.892 655.079,104.162 654.581,104.565 C654.083,104.969 653.652,105.548 653.302,106.302 C652.952,107.056 652.777,108.052 652.777,109.277 L652.777,123.762 L645.925,123.762 L645.925,98.777 L652.387,98.777 Z" />
            <path d="M698.156,144.398 L698.156,77.602 L693.35,77.602 L693.35,76 L700,76 L700,146 L693.35,146 L693.35,144.398 L698.156,144.398 Z" />
        </g>
    </g>
</svg>