<svg xmlns="http://www.w3.org/2000/svg" xmlns:xlink="http://www.w3.org/1999/xlink" height="170" stroke-miterlimit="10" width="100" fill-rule="nonzero" stroke-linecap="round" stroke-linejoin="round" xmlns:v="https://vecta.io/nano"><defs><path d="M0 12C0 5.373 5.373 0 12 0h76c6.627 0 12 5.373 12 12v146c0 6.627-5.373 12-12 12H12c-6.627 0-12-5.373-12-12V12z" id="A"/><linearGradient gradientUnits="userSpaceOnUse" id="B" x1="50.23" x2="50.002" y1="148.26" y2="178.829"><stop offset="0"/><stop offset="1" stop-opacity="0"/></linearGradient><linearGradient gradientUnits="userSpaceOnUse" id="C" x1="50.693" x2="50.861" y1="12.319" y2="4.974"><stop offset="0" stop-opacity=".382"/><stop offset="1" stop-opacity="0"/></linearGradient><path id="D" d="M7.906 113.344c-1.949 0-3.531 1.582-3.531 3.531v.25c0 1.949 1.582 3.531 3.531 3.531h13.938c1.949 0 3.531-1.582 3.531-3.531v-.25c0-1.949-1.582-3.531-3.531-3.531H7.906zm35.125 0c-1.949 0-3.531 1.582-3.531 3.531v.25c0 1.949 1.582 3.531 3.531 3.531h13.938c1.949 0 3.531-1.582 3.531-3.531v-.25c0-1.949-1.582-3.531-3.531-3.531H43.031zm34.844 0c-1.949 0-3.531 1.582-3.531 3.531v.25c0 1.949 1.582 3.531 3.531 3.531h13.969c1.949 0 3.531-1.582 3.531-3.531v-.25c0-1.949-1.582-3.531-3.531-3.531H77.875z"/></defs><clipPath id="E"><path d="M0 0h100v170H0z"/></clipPath><g clip-path="url(#E)"><use opacity=".2" xlink:href="#A"/><clipPath clip-rule="nonzero" id="F"><use xlink:href="#A"/></clipPath><g clip-path="url(#F)"><path d="M7 165a8 8 0 0 1 8-8h70a8 8 0 0 1 8 8v39a8 8 0 0 1-8 8H15a8 8 0 0 1-8-8v-39z" fill="url(#B)" opacity=".423"/></g><path d="M24.501 29.942c0-1.901 1.579-3.442 3.526-3.442h9.948c1.947 0 3.526 1.541 3.526 3.442v.117c0 1.901-1.579 3.442-3.526 3.442h-9.948c-1.947 0-3.526-1.541-3.526-3.442v-.117z" opacity=".569"/><path d="M7 61a8 8 0 0 1 8-8h70a8 8 0 0 1 8 8v39a8 8 0 0 1-8 8H15a8 8 0 0 1-8-8V61z"/><path d="M0 122h100v1.3H0V122zM0 18h100v1.3H0V18z" opacity=".523"/><path d="M7 30a7 7 0 1 1 14 0 7 7 0 1 1-14 0zm17.501 103.942c0-1.901 1.579-3.442 3.526-3.442h9.948c1.947 0 3.526 1.541 3.526 3.442v.116c0 1.901-1.579 3.442-3.526 3.442h-9.948c-1.947 0-3.526-1.541-3.526-3.442v-.116zM7 134a7 7 0 1 1 14 0 7 7 0 1 1-14 0z" opacity=".569"/><path d="M7 44.209A3.21 3.21 0 0 1 10.209 41h40.582A3.21 3.21 0 0 1 54 44.209v.582A3.21 3.21 0 0 1 50.791 48H10.209A3.21 3.21 0 0 1 7 44.791v-.582z"/><path d="M7 147.993C7 146.34 8.34 145 9.993 145h41.014c1.653 0 2.993 1.34 2.993 2.993v1.014c0 1.653-1.34 2.993-2.993 2.993H9.993C8.34 152 7 150.66 7 149.007v-1.014z" opacity=".317"/><use xlink:href="#D" opacity="0"/><path d="M7.906 5.531c-1.949 0-3.531 1.582-3.531 3.531v.25c0 1.949 1.582 3.531 3.531 3.531h13.938c1.949 0 3.531-1.582 3.531-3.531v-.25c0-1.949-1.582-3.531-3.531-3.531H7.906zm35.125 0c-1.949 0-3.531 1.582-3.531 3.531v.25c0 1.949 1.582 3.531 3.531 3.531h13.938c1.949 0 3.531-1.582 3.531-3.531v-.25c0-1.949-1.582-3.531-3.531-3.531H43.031zm34.844 0c-1.949 0-3.531 1.582-3.531 3.531v.25c0 1.949 1.582 3.531 3.531 3.531h13.969c1.949 0 3.531-1.582 3.531-3.531v-.25c0-1.949-1.582-3.531-3.531-3.531H77.875z" fill="url(#C)" opacity="0"/></g></svg>