<?xml version="1.0" encoding="UTF-8" standalone="no"?>
<!DOCTYPE svg PUBLIC "-//W3C//DTD SVG 1.1//EN" "http://www.w3.org/Graphics/SVG/1.1/DTD/svg11.dtd">
<!-- Created with Vectornator (http://vectornator.io/) -->
<svg height="100%" stroke-miterlimit="10" style="fill-rule:nonzero;clip-rule:evenodd;stroke-linecap:round;stroke-linejoin:round;" version="1.1" viewBox="0 0 100 170" width="100%" xml:space="preserve" xmlns="http://www.w3.org/2000/svg" xmlns:vectornator="http://vectornator.io" xmlns:xlink="http://www.w3.org/1999/xlink">
<defs>
<path d="M2.84217e-14 12C2.84217e-14 5.37258 5.37258 0 12 0L88 0C94.6274 0 100 5.37258 100 12L100 158C100 164.627 94.6274 170 88 170L12 170C5.37258 170 2.84217e-14 164.627 2.84217e-14 158L2.84217e-14 12Z" id="Fill"/>
<linearGradient gradientTransform="matrix(1 0 0 1 0 0)" gradientUnits="userSpaceOnUse" id="LinearGradient" x1="16.9954" x2="16.4102" y1="155.125" y2="177.796">
<stop offset="0" stop-color="#000000"/>
<stop offset="1" stop-color="#000000" stop-opacity="0"/>
</linearGradient>
<linearGradient gradientTransform="matrix(1 0 0 1 0 0)" gradientUnits="userSpaceOnUse" id="LinearGradient_2" x1="50.6929" x2="50.8613" y1="12.3192" y2="4.97415">
<stop offset="0" stop-color="#000000" stop-opacity="0.382327"/>
<stop offset="1" stop-color="#000000" stop-opacity="0"/>
</linearGradient>
</defs>
<g id="Layer-1" vectornator:layerName="Layer 1">
<g opacity="1" vectornator:layerName="Group 2">
<use fill="#000000" fill-rule="nonzero" opacity="0.2" stroke="none" vectornator:layerName="Rectangle 1" xlink:href="#Fill"/>
<clipPath clip-rule="nonzero" id="ClipPath">
<use xlink:href="#Fill"/>
</clipPath>
<g clip-path="url(#ClipPath)">
<g opacity="1" vectornator:layerName="Group 5">
<path d="M6.3149 145.357C6.3149 142.359 8.74554 139.928 11.7439 139.928C14.7422 139.928 17.1729 142.359 17.1729 145.357C17.1729 148.356 14.7422 150.786 11.7439 150.786C8.74554 150.786 6.3149 148.356 6.3149 145.357Z" fill="#000000" fill-rule="nonzero" opacity="0.437797" stroke="none" vectornator:layerName="Oval 1"/>
<path d="M20.4979 145.298C20.4979 143.352 22.075 141.775 24.0204 141.775L33.9588 141.775C35.9042 141.775 37.4813 143.352 37.4813 145.298L37.4813 145.417C37.4813 147.363 35.9042 148.94 33.9588 148.94L24.0204 148.94C22.075 148.94 20.4979 147.363 20.4979 145.417L20.4979 145.298Z" fill="#000000" fill-rule="nonzero" opacity="0.325205" stroke="none" vectornator:layerName="Rectangle 13"/>
<path d="M6.3149 158.306C6.3149 156.511 7.76965 155.056 9.56418 155.056L24.2197 155.056C26.0142 155.056 27.469 156.511 27.469 158.306L27.469 172.961C27.469 174.756 26.0142 176.211 24.2197 176.211L9.56418 176.211C7.76965 176.211 6.3149 174.756 6.3149 172.961L6.3149 158.306Z" fill="url(#LinearGradient)" fill-rule="nonzero" opacity="0.373675" stroke="none" vectornator:layerName="Rectangle 10"/>
<path d="M30.9896 158.503C30.9896 156.6 32.7787 155.056 34.9856 155.056L88.4204 155.056C90.6273 155.056 92.4164 156.6 92.4164 158.503L92.4164 160.187C92.4164 162.09 90.6273 163.634 88.4204 163.634L34.9856 163.634C32.7787 163.634 30.9896 162.09 30.9896 160.187L30.9896 158.503Z" fill="#000000" fill-rule="nonzero" opacity="0.347264" stroke="none" vectornator:layerName="Rectangle 11"/>
</g>
<g opacity="1" vectornator:layerName="Group 5">
<path d="M6.3149-11.9124C6.3149-13.7069 7.76965-15.1617 9.56418-15.1617L24.2197-15.1617C26.0142-15.1617 27.469-13.7069 27.469-11.9124L27.469 2.74315C27.469 4.53768 26.0142 5.99243 24.2197 5.99243L9.56418 5.99243C7.76965 5.99243 6.3149 4.53768 6.3149 2.74315L6.3149-11.9124Z" fill="#000000" fill-rule="nonzero" opacity="0.301065" stroke="none" vectornator:layerName="Rectangle 10"/>
<path d="M30.9896 1.41539C30.9896-0.793753 32.7805-2.58461 34.9896-2.58461L71.3738-2.58461C73.583-2.58461 75.3738-0.793753 75.3738 1.41539L75.3738 1.99243C75.3738 4.20157 73.583 5.99243 71.3738 5.99243L34.9896 5.99243C32.7805 5.99243 30.9896 4.20157 30.9896 1.99243L30.9896 1.41539Z" fill="#000000" fill-rule="nonzero" opacity="0.301065" stroke="none" vectornator:layerName="Rectangle 12"/>
</g>
</g>
</g>
<path d="M3.08157e-15 74.3145L100 74.3145L100 75.6146L3.08157e-15 75.6146L3.08157e-15 74.3145Z" fill="#000000" fill-rule="nonzero" opacity="0.523167" stroke="none" vectornator:layerName="Rectangle 2"/>
<path d="M6.53301e-15 130.681L100 130.681L100 131.981L6.53301e-15 131.981L6.53301e-15 130.681Z" fill="#000000" fill-rule="nonzero" opacity="0.523167" stroke="none" vectornator:layerName="Rectangle 10"/>
<path d="M6.537e-15 17.883L100 17.883L100 19.1831L6.537e-15 19.1831L6.537e-15 17.883Z" fill="#000000" fill-rule="nonzero" opacity="0.523167" stroke="none" vectornator:layerName="Rectangle 9"/>
<path d="M7.90625 113.344C5.95703 113.344 4.375 114.926 4.375 116.875L4.375 117.125C4.375 119.074 5.95703 120.656 7.90625 120.656L21.8438 120.656C23.793 120.656 25.375 119.074 25.375 117.125L25.375 116.875C25.375 114.926 23.793 113.344 21.8438 113.344L7.90625 113.344ZM43.0312 113.344C41.082 113.344 39.5 114.926 39.5 116.875L39.5 117.125C39.5 119.074 41.082 120.656 43.0312 120.656L56.9688 120.656C58.918 120.656 60.5 119.074 60.5 117.125L60.5 116.875C60.5 114.926 58.918 113.344 56.9688 113.344L43.0312 113.344ZM77.875 113.344C75.9258 113.344 74.3438 114.926 74.3438 116.875L74.3438 117.125C74.3437 119.074 75.9258 120.656 77.875 120.656L91.8438 120.656C93.793 120.656 95.375 119.074 95.375 117.125L95.375 116.875C95.375 114.926 93.793 113.344 91.8438 113.344L77.875 113.344Z" fill="#000000" fill-rule="nonzero" opacity="0" stroke="none" vectornator:layerName="Curve 2"/>
<path d="M7.90625 5.53125C5.95703 5.53125 4.375 7.11328 4.375 9.0625L4.375 9.3125C4.375 11.2617 5.95703 12.8438 7.90625 12.8438L21.8438 12.8438C23.793 12.8437 25.375 11.2617 25.375 9.3125L25.375 9.0625C25.375 7.11328 23.793 5.53125 21.8438 5.53125L7.90625 5.53125ZM43.0312 5.53125C41.082 5.53125 39.5 7.11328 39.5 9.0625L39.5 9.3125C39.5 11.2617 41.082 12.8438 43.0312 12.8438L56.9688 12.8438C58.918 12.8437 60.5 11.2617 60.5 9.3125L60.5 9.0625C60.5 7.11328 58.918 5.53125 56.9688 5.53125L43.0312 5.53125ZM77.875 5.53125C75.9258 5.53125 74.3438 7.11328 74.3438 9.0625L74.3438 9.3125C74.3437 11.2617 75.9258 12.8438 77.875 12.8438L91.8438 12.8438C93.793 12.8437 95.375 11.2617 95.375 9.3125L95.375 9.0625C95.375 7.11328 93.793 5.53125 91.8438 5.53125L77.875 5.53125Z" fill="url(#LinearGradient_2)" fill-rule="nonzero" opacity="0" stroke="none" vectornator:layerName="Curve 1"/>
<g opacity="1" vectornator:layerName="Group 3">
<path d="M6.3149 29.1419C6.3149 26.1436 8.74554 23.713 11.7439 23.713C14.7422 23.713 17.1729 26.1436 17.1729 29.1419C17.1729 32.1403 14.7422 34.5709 11.7439 34.5709C8.74554 34.5709 6.3149 32.1403 6.3149 29.1419Z" fill="#000000" fill-rule="nonzero" opacity="0.569042" stroke="none" vectornator:layerName="Oval 1"/>
<path d="M20.4979 29.0822C20.4979 27.1367 22.075 25.5596 24.0204 25.5596L33.9588 25.5596C35.9042 25.5596 37.4813 27.1367 37.4813 29.0822L37.4813 29.2017C37.4813 31.1471 35.9042 32.7242 33.9588 32.7242L24.0204 32.7242C22.075 32.7242 20.4979 31.1471 20.4979 29.2017L20.4979 29.0822Z" fill="#000000" fill-rule="nonzero" opacity="0.355536" stroke="none" vectornator:layerName="Rectangle 13"/>
<path d="M6.3149 42.0902C6.3149 40.2957 7.76965 38.841 9.56418 38.841L24.2197 38.841C26.0142 38.841 27.469 40.2957 27.469 42.0902L27.469 56.7458C27.469 58.5403 26.0142 59.995 24.2197 59.995L9.56418 59.995C7.76965 59.995 6.3149 58.5403 6.3149 56.7458L6.3149 42.0902Z" fill="#000000" fill-rule="nonzero" opacity="0.798984" stroke="none" vectornator:layerName="Rectangle 10"/>
<path d="M30.9896 42.2878C30.9896 40.3842 32.7787 38.841 34.9856 38.841L88.4204 38.841C90.6273 38.841 92.4164 40.3842 92.4164 42.2878L92.4164 43.9711C92.4164 45.8748 90.6273 47.418 88.4204 47.418L34.9856 47.418C32.7787 47.418 30.9896 45.8748 30.9896 43.9711L30.9896 42.2878Z" fill="#000000" fill-rule="nonzero" opacity="0.765138" stroke="none" vectornator:layerName="Rectangle 11"/>
<path d="M30.9896 55.418C30.9896 53.2089 32.7805 51.418 34.9896 51.418L71.3738 51.418C73.583 51.418 75.3738 53.2089 75.3738 55.418L75.3738 55.995C75.3738 58.2042 73.583 59.995 71.3738 59.995L34.9896 59.995C32.7805 59.995 30.9896 58.2042 30.9896 55.995L30.9896 55.418Z" fill="#000000" fill-rule="nonzero" opacity="0.824989" stroke="none" vectornator:layerName="Rectangle 12"/>
</g>
<g opacity="1" vectornator:layerName="Group 4">
<path d="M6.3149 86.8383C6.3149 83.84 8.74554 81.4094 11.7439 81.4094C14.7422 81.4094 17.1729 83.84 17.1729 86.8383C17.1729 89.8367 14.7422 92.2673 11.7439 92.2673C8.74554 92.2673 6.3149 89.8367 6.3149 86.8383Z" fill="#000000" fill-rule="nonzero" opacity="0.569042" stroke="none" vectornator:layerName="Oval 1"/>
<path d="M20.4979 86.776C20.4979 84.832 22.0738 83.256 24.0179 83.256L40.598 83.256C42.5421 83.256 44.118 84.832 44.118 86.776L44.118 86.9006C44.118 88.8447 42.5421 90.4206 40.598 90.4206L24.0179 90.4206C22.0738 90.4206 20.4979 88.8447 20.4979 86.9006L20.4979 86.776Z" fill="#000000" fill-rule="nonzero" opacity="0.355536" stroke="none" vectornator:layerName="Rectangle 13"/>
<path d="M6.3149 99.7866C6.3149 97.9921 7.76965 96.5374 9.56418 96.5374L24.2197 96.5374C26.0142 96.5374 27.469 97.9921 27.469 99.7866L27.469 114.442C27.469 116.237 26.0142 117.691 24.2197 117.691L9.56418 117.691C7.76965 117.691 6.3149 116.237 6.3149 114.442L6.3149 99.7866Z" fill="#000000" fill-rule="nonzero" opacity="0.90579" stroke="none" vectornator:layerName="Rectangle 10"/>
<path d="M30.9896 100.537C30.9896 98.3282 32.7805 96.5374 34.9896 96.5374L65.3736 96.5374C67.5827 96.5374 69.3736 98.3282 69.3736 100.537L69.3736 101.114C69.3736 103.324 67.5827 105.114 65.3736 105.114L34.9896 105.114C32.7805 105.114 30.9896 103.324 30.9896 101.114L30.9896 100.537Z" fill="#000000" fill-rule="nonzero" opacity="1" stroke="none" vectornator:layerName="Rectangle 11"/>
</g>
</g>
</svg>
