<svg xmlns="http://www.w3.org/2000/svg" xmlns:xlink="http://www.w3.org/1999/xlink" height="170" stroke-miterlimit="10" width="100" fill-rule="nonzero" stroke-linecap="round" stroke-linejoin="round" xmlns:v="https://vecta.io/nano"><defs><path d="M0 12C0 5.373 5.373 0 12 0h76c6.627 0 12 5.373 12 12v146c0 6.627-5.373 12-12 12H12c-6.627 0-12-5.373-12-12V12z" id="A"/><linearGradient gradientUnits="userSpaceOnUse" id="B" x1="18.782" x2="19.105" y1="150.854" y2="173.74"><stop offset="0"/><stop offset="1" stop-opacity="0"/></linearGradient><linearGradient gradientUnits="userSpaceOnUse" id="C" x1="50.693" x2="50.861" y1="120.132" y2="112.787"><stop offset="0" stop-opacity=".382"/><stop offset="1" stop-opacity="0"/></linearGradient><path id="D" d="M7 141.5a5.5 5.5 0 1 1 11 0 5.5 5.5 0 1 1-11 0z"/><path id="E" d="M7.906 113.344c-1.949 0-3.531 1.582-3.531 3.531v.25c0 1.949 1.582 3.531 3.531 3.531h13.938c1.949 0 3.531-1.582 3.531-3.531v-.25c0-1.949-1.582-3.531-3.531-3.531H7.906zm35.125 0c-1.949 0-3.531 1.582-3.531 3.531v.25c0 1.949 1.582 3.531 3.531 3.531h13.938c1.949 0 3.531-1.582 3.531-3.531v-.25c0-1.949-1.582-3.531-3.531-3.531H43.031zm34.844 0c-1.949 0-3.531 1.582-3.531 3.531v.25c0 1.949 1.582 3.531 3.531 3.531h13.969c1.949 0 3.531-1.582 3.531-3.531v-.25c0-1.949-1.582-3.531-3.531-3.531H77.875z"/></defs><use opacity=".2" xlink:href="#A"/><clipPath clip-rule="nonzero" id="F"><use xlink:href="#A"/></clipPath><g clip-path="url(#F)"><use xlink:href="#D" opacity=".442"/><path d="M22 141.442c0-1.901 1.579-3.442 3.526-3.442h9.948c1.947 0 3.526 1.541 3.526 3.442v.116c0 1.901-1.579 3.442-3.526 3.442h-9.948c-1.947 0-3.526-1.541-3.526-3.442v-.116z" opacity=".236"/><path d="M7 155a4 4 0 0 1 4-4h13a4 4 0 0 1 4 4v13a4 4 0 0 1-4 4H11a4 4 0 0 1-4-4v-13z" fill="url(#B)" opacity=".437"/><path d="M32 154.877A3.88 3.88 0 0 1 35.877 151h42.245A3.88 3.88 0 0 1 82 154.877v.246A3.88 3.88 0 0 1 78.123 159H35.877A3.88 3.88 0 0 1 32 155.123v-.246z" opacity=".384"/><path d="M7-11a4 4 0 0 1 4-4h13a4 4 0 0 1 4 4V2a4 4 0 0 1-4 4H11a4 4 0 0 1-4-4v-13zM32 1.672C32-.356 33.644-2 35.672-2h32.656C70.356-2 72-.356 72 1.672v.656C72 4.356 70.356 6 68.328 6H35.672C33.644 6 32 4.356 32 2.328v-.656z" opacity=".4"/></g><path d="M0 74h100v1.3H0V74zm0 56h100v1.3H0V130zM0 18h100v1.3H0V18z" opacity=".523"/><use xlink:href="#E" opacity="0"/><use xlink:href="#E" y="-107.813" fill="url(#C)" opacity="0"/><use xlink:href="#D" y="-112" opacity=".569"/><path d="M22 29.442C22 27.541 23.579 26 25.526 26h9.948C37.421 26 39 27.541 39 29.442v.117C39 31.459 37.421 33 35.474 33h-9.948C23.579 33 22 31.459 22 29.558v-.117z" opacity=".356"/><path d="M7 43a4 4 0 0 1 4-4h13a4 4 0 0 1 4 4v13a4 4 0 0 1-4 4H11a4 4 0 0 1-4-4V43z" opacity=".799"/><path d="M32 42.984c0-2.2 1.784-3.984 3.984-3.984h52.032c2.2 0 3.984 1.784 3.984 3.984v.032c0 2.2-1.784 3.984-3.984 3.984H35.984C33.784 47 32 45.216 32 43.016v-.032z" opacity=".765"/><path d="M32 55.672C32 53.644 33.644 52 35.672 52h32.656C70.356 52 72 53.644 72 55.672v.656C72 58.356 70.356 60 68.328 60H35.672C33.644 60 32 58.356 32 56.328v-.656z" opacity=".825"/><use xlink:href="#D" y="-56" opacity=".569"/><path d="M22 85.443C22 83.542 23.542 82 25.443 82h18.113C45.458 82 47 83.542 47 85.443v.113C47 87.458 45.458 89 43.557 89H25.443C23.542 89 22 87.458 22 85.557v-.113z" opacity=".356"/><path d="M7 99a4 4 0 0 1 4-4h13a4 4 0 0 1 4 4v13a4 4 0 0 1-4 4H11a4 4 0 0 1-4-4V99z" opacity=".799"/><path d="M32 98.722C32 96.666 33.666 95 35.722 95h27.556C65.334 95 67 96.666 67 98.722v.556c0 2.056-1.666 3.722-3.722 3.722H35.722C33.666 103 32 101.334 32 99.278v-.556z" opacity=".765"/></svg>