<?xml version="1.0" encoding="UTF-8"?>
<!--Generator: Apple Native CoreSVG 232.5-->
<!DOCTYPE svg
PUBLIC "-//W3C//DTD SVG 1.1//EN"
       "http://www.w3.org/Graphics/SVG/1.1/DTD/svg11.dtd">
<svg version="1.1" xmlns="http://www.w3.org/2000/svg" xmlns:xlink="http://www.w3.org/1999/xlink" width="3300" height="2200">
 <!--glyph: "", point size: 100.0, font version: "19.2d2e1", template writer version: "128"-->
 <style>.monochrome-0 {-sfsymbols-motion-group:0}
.monochrome-1 {opacity:0.0;-sfsymbols-clear-behind:true;-sfsymbols-motion-group:0}

.multicolor-0:systemRedColor {-sfsymbols-motion-group:0}
.multicolor-1:white {-sfsymbols-motion-group:0}

.hierarchical-0:secondary {-sfsymbols-motion-group:0}
.hierarchical-1:primary {-sfsymbols-motion-group:0}

.SFSymbolsPreviewWireframe {fill:none;opacity:1.0;stroke:black;stroke-width:0.5}
</style>
 <g id="Notes">
  <rect height="2200" id="artboard" style="fill:white;opacity:1" width="3300" x="0" y="0"/>
  <line style="fill:none;stroke:black;opacity:1;stroke-width:0.5;" x1="263" x2="3036" y1="292" y2="292"/>
  <text style="stroke:none;fill:black;font-family:sans-serif;font-size:13;font-weight:bold;" transform="matrix(1 0 0 1 263 322)">Weight/Scale Variations</text>
  <text style="stroke:none;fill:black;font-family:sans-serif;font-size:13;text-anchor:middle;" transform="matrix(1 0 0 1 559.711 322)">Ultralight</text>
  <text style="stroke:none;fill:black;font-family:sans-serif;font-size:13;text-anchor:middle;" transform="matrix(1 0 0 1 856.422 322)">Thin</text>
  <text style="stroke:none;fill:black;font-family:sans-serif;font-size:13;text-anchor:middle;" transform="matrix(1 0 0 1 1153.13 322)">Light</text>
  <text style="stroke:none;fill:black;font-family:sans-serif;font-size:13;text-anchor:middle;" transform="matrix(1 0 0 1 1449.84 322)">Regular</text>
  <text style="stroke:none;fill:black;font-family:sans-serif;font-size:13;text-anchor:middle;" transform="matrix(1 0 0 1 1746.56 322)">Medium</text>
  <text style="stroke:none;fill:black;font-family:sans-serif;font-size:13;text-anchor:middle;" transform="matrix(1 0 0 1 2043.27 322)">Semibold</text>
  <text style="stroke:none;fill:black;font-family:sans-serif;font-size:13;text-anchor:middle;" transform="matrix(1 0 0 1 2339.98 322)">Bold</text>
  <text style="stroke:none;fill:black;font-family:sans-serif;font-size:13;text-anchor:middle;" transform="matrix(1 0 0 1 2636.69 322)">Heavy</text>
  <text style="stroke:none;fill:black;font-family:sans-serif;font-size:13;text-anchor:middle;" transform="matrix(1 0 0 1 2933.4 322)">Black</text>
  <line style="fill:none;stroke:black;opacity:1;stroke-width:0.5;" x1="263" x2="3036" y1="1903" y2="1903"/>
  <g transform="matrix(0.2 0 0 0.2 263 1933)">
   <path d="m46.2402 4.15039c21.5332 0 39.4531-17.8711 39.4531-39.4043s-17.9688-39.4043-39.502-39.4043c-21.4844 0-39.3555 17.8711-39.3555 39.4043s17.9199 39.4043 39.4043 39.4043Zm0-7.42188c-17.7246 0-31.8848-14.209-31.8848-31.9824s14.1113-31.9824 31.8359-31.9824c17.7734 0 32.0312 14.209 32.0312 31.9824s-14.209 31.9824-31.9824 31.9824Zm-17.9688-31.9824c0 2.14844 1.51367 3.61328 3.75977 3.61328h10.498v10.5957c0 2.19727 1.46484 3.71094 3.61328 3.71094 2.24609 0 3.71094-1.51367 3.71094-3.71094v-10.5957h10.5957c2.19727 0 3.71094-1.46484 3.71094-3.61328 0-2.19727-1.51367-3.71094-3.71094-3.71094h-10.5957v-10.5469c0-2.24609-1.46484-3.75977-3.71094-3.75977-2.14844 0-3.61328 1.51367-3.61328 3.75977v10.5469h-10.498c-2.24609 0-3.75977 1.51367-3.75977 3.71094Z"/>
  </g>
  <g transform="matrix(0.2 0 0 0.2 281.506 1933)">
   <path d="m58.5449 14.5508c27.2461 0 49.8047-22.6074 49.8047-49.8047 0-27.2461-22.6074-49.8047-49.8535-49.8047-27.1973 0-49.7559 22.5586-49.7559 49.8047 0 27.1973 22.6074 49.8047 49.8047 49.8047Zm0-8.30078c-23.0469 0-41.4551-18.457-41.4551-41.5039s18.3594-41.5039 41.4062-41.5039 41.5527 18.457 41.5527 41.5039-18.457 41.5039-41.5039 41.5039Zm-22.6562-41.5039c0 2.39258 1.66016 4.00391 4.15039 4.00391h14.3555v14.4043c0 2.44141 1.66016 4.15039 4.05273 4.15039 2.44141 0 4.15039-1.66016 4.15039-4.15039v-14.4043h14.4043c2.44141 0 4.15039-1.61133 4.15039-4.00391 0-2.44141-1.70898-4.15039-4.15039-4.15039h-14.4043v-14.3555c0-2.49023-1.70898-4.19922-4.15039-4.19922-2.39258 0-4.05273 1.70898-4.05273 4.19922v14.3555h-14.3555c-2.49023 0-4.15039 1.70898-4.15039 4.15039Z"/>
  </g>
  <g transform="matrix(0.2 0 0 0.2 304.924 1933)">
   <path d="m74.8535 28.3203c34.8145 0 63.623-28.8086 63.623-63.5742 0-34.8145-28.8574-63.623-63.6719-63.623-34.7656 0-63.5254 28.8086-63.5254 63.623 0 34.7656 28.8086 63.5742 63.5742 63.5742Zm0-9.08203c-30.1758 0-54.4434-24.3164-54.4434-54.4922 0-30.2246 24.2188-54.4922 54.3945-54.4922 30.2246 0 54.541 24.2676 54.541 54.4922 0 30.1758-24.2676 54.4922-54.4922 54.4922Zm-28.8574-54.4922c0 2.58789 1.85547 4.39453 4.58984 4.39453h19.7266v19.7754c0 2.68555 1.85547 4.58984 4.44336 4.58984 2.68555 0 4.54102-1.85547 4.54102-4.58984v-19.7754h19.7754c2.68555 0 4.58984-1.80664 4.58984-4.39453 0-2.73438-1.85547-4.58984-4.58984-4.58984h-19.7754v-19.7266c0-2.73438-1.85547-4.63867-4.54102-4.63867-2.58789 0-4.44336 1.9043-4.44336 4.63867v19.7266h-19.7266c-2.73438 0-4.58984 1.85547-4.58984 4.58984Z"/>
  </g>
  <text style="stroke:none;fill:black;font-family:sans-serif;font-size:13;font-weight:bold;" transform="matrix(1 0 0 1 263 1953)">Design Variations</text>
  <text style="stroke:none;fill:black;font-family:sans-serif;font-size:13;" transform="matrix(1 0 0 1 263 1971)">Symbols are supported in up to nine weights and three scales.</text>
  <text style="stroke:none;fill:black;font-family:sans-serif;font-size:13;" transform="matrix(1 0 0 1 263 1989)">For optimal layout with text and other symbols, vertically align</text>
  <text style="stroke:none;fill:black;font-family:sans-serif;font-size:13;" transform="matrix(1 0 0 1 263 2007)">symbols with the adjacent text.</text>
  <line style="fill:none;stroke:#00AEEF;stroke-width:0.5;opacity:1.0;" x1="776" x2="776" y1="1919" y2="1933"/>
  <g transform="matrix(0.2 0 0 0.2 776 1933)">
   <path d="m16.5527 0.78125c2.58789 0 3.85742-0.976562 4.78516-3.71094l6.29883-17.2363h28.8086l6.29883 17.2363c0.927734 2.73438 2.19727 3.71094 4.73633 3.71094 2.58789 0 4.24805-1.5625 4.24805-4.00391 0-0.830078-0.146484-1.61133-0.537109-2.63672l-22.9004-60.9863c-1.12305-2.97852-3.125-4.49219-6.25-4.49219-3.02734 0-5.07812 1.46484-6.15234 4.44336l-22.9004 61.084c-0.390625 1.02539-0.537109 1.80664-0.537109 2.63672 0 2.44141 1.5625 3.95508 4.10156 3.95508Zm13.4766-28.3691 11.8652-32.8613h0.244141l11.8652 32.8613Z"/>
  </g>
  <line style="fill:none;stroke:#00AEEF;stroke-width:0.5;opacity:1.0;" x1="792.836" x2="792.836" y1="1919" y2="1933"/>
  <text style="stroke:none;fill:black;font-family:sans-serif;font-size:13;font-weight:bold;" transform="matrix(1 0 0 1 776 1953)">Margins</text>
  <text style="stroke:none;fill:black;font-family:sans-serif;font-size:13;" transform="matrix(1 0 0 1 776 1971)">Leading and trailing margins on the left and right side of each symbol</text>
  <text style="stroke:none;fill:black;font-family:sans-serif;font-size:13;" transform="matrix(1 0 0 1 776 1989)">can be adjusted by modifying the x-location of the margin guidelines.</text>
  <text style="stroke:none;fill:black;font-family:sans-serif;font-size:13;" transform="matrix(1 0 0 1 776 2007)">Modifications are automatically applied proportionally to all</text>
  <text style="stroke:none;fill:black;font-family:sans-serif;font-size:13;" transform="matrix(1 0 0 1 776 2025)">scales and weights.</text>
  <g transform="matrix(0.2 0 0 0.2 1289 1933)">
   <path d="m14.209 9.32617 8.49609 8.54492c4.29688 4.3457 9.22852 4.05273 13.8672-1.07422l53.4668-58.9355-4.83398-4.88281-53.0762 58.3984c-1.75781 2.00195-3.41797 2.49023-5.76172 0.146484l-5.85938-5.81055c-2.34375-2.29492-1.80664-4.00391 0.195312-5.81055l57.373-54.0039-4.88281-4.83398-57.959 54.4434c-4.93164 4.58984-5.32227 9.47266-1.02539 13.8184Zm32.0801-90.9668c-2.09961 2.05078-2.24609 4.93164-1.07422 6.88477 1.17188 1.80664 3.4668 2.97852 6.68945 2.14844 7.32422-1.70898 14.9414-2.00195 22.0703 2.68555l-2.92969 7.27539c-1.70898 4.15039-0.830078 7.08008 1.85547 9.81445l11.4746 11.5723c2.44141 2.44141 4.49219 2.53906 7.32422 2.05078l5.32227-0.976562 3.32031 3.36914-0.195312 2.7832c-0.195312 2.49023 0.439453 4.39453 2.88086 6.78711l3.80859 3.71094c2.39258 2.39258 5.46875 2.53906 7.8125 0.195312l14.5508-14.5996c2.34375-2.34375 2.24609-5.32227-0.146484-7.71484l-3.85742-3.80859c-2.39258-2.39258-4.24805-3.17383-6.64062-2.97852l-2.88086 0.244141-3.22266-3.17383 1.2207-5.61523c0.634766-2.83203-0.146484-5.0293-3.07617-7.95898l-10.9863-10.9375c-16.6992-16.6016-38.8672-16.2109-53.3203-1.75781Zm7.4707 1.85547c12.1582-8.88672 28.6133-7.37305 39.7461 3.75977l12.1582 12.0605c1.17188 1.17188 1.36719 2.09961 1.02539 3.80859l-1.61133 7.42188 7.51953 7.42188 4.93164-0.292969c1.26953-0.0488281 1.66016 0.0488281 2.63672 1.02539l2.88086 2.88086-12.207 12.207-2.88086-2.88086c-0.976562-0.976562-1.12305-1.36719-1.07422-2.68555l0.341797-4.88281-7.4707-7.42188-7.61719 1.26953c-1.61133 0.341797-2.34375 0.195312-3.56445-0.976562l-10.0098-10.0098c-1.26953-1.17188-1.41602-2.00195-0.634766-3.85742l4.39453-10.4492c-7.8125-7.27539-17.9688-10.4004-28.125-7.42188-0.78125 0.195312-1.07422-0.439453-0.439453-0.976562Z"/>
  </g>
  <text style="stroke:none;fill:black;font-family:sans-serif;font-size:13;font-weight:bold;" transform="matrix(1 0 0 1 1289 1953)">Exporting</text>
  <text style="stroke:none;fill:black;font-family:sans-serif;font-size:13;" transform="matrix(1 0 0 1 1289 1971)">Symbols should be outlined when exporting to ensure the</text>
  <text style="stroke:none;fill:black;font-family:sans-serif;font-size:13;" transform="matrix(1 0 0 1 1289 1989)">design is preserved when submitting to Xcode.</text>
  <text id="template-version" style="stroke:none;fill:black;font-family:sans-serif;font-size:13;text-anchor:end;" transform="matrix(1 0 0 1 3036 1933)">Template v.5.0</text>
  <text style="stroke:none;fill:black;font-family:sans-serif;font-size:13;text-anchor:end;" transform="matrix(1 0 0 1 3036 1951)">Requires Xcode 15 or greater</text>
  <text id="descriptive-name" style="stroke:none;fill:black;font-family:sans-serif;font-size:13;text-anchor:end;" transform="matrix(1 0 0 1 3036 1969)">Generated from nsfw</text>
  <text style="stroke:none;fill:black;font-family:sans-serif;font-size:13;text-anchor:end;" transform="matrix(1 0 0 1 3036 1987)">Typeset at 100.0 points</text>
  <text style="stroke:none;fill:black;font-family:sans-serif;font-size:13;" transform="matrix(1 0 0 1 263 726)">Small</text>
  <text style="stroke:none;fill:black;font-family:sans-serif;font-size:13;" transform="matrix(1 0 0 1 263 1156)">Medium</text>
  <text style="stroke:none;fill:black;font-family:sans-serif;font-size:13;" transform="matrix(1 0 0 1 263 1586)">Large</text>
 </g>
 <g id="Guides">
  <g id="H-reference" style="fill:#27AAE1;stroke:none;" transform="matrix(1 0 0 1 339 696)">
   <path d="M0.993654 0L3.63775 0L29.3281-67.1323L30.0303-67.1323L30.0303-70.459L28.1226-70.459ZM11.6885-24.4799L46.9815-24.4799L46.2315-26.7285L12.4385-26.7285ZM55.1196 0L57.7637 0L30.6382-70.459L29.4326-70.459L29.4326-67.1323Z"/>
  </g>
  <line id="Baseline-S" style="fill:none;stroke:#27AAE1;opacity:1;stroke-width:0.5;" x1="263" x2="3036" y1="696" y2="696"/>
  <line id="Capline-S" style="fill:none;stroke:#27AAE1;opacity:1;stroke-width:0.5;" x1="263" x2="3036" y1="625.541" y2="625.541"/>
  <g id="H-reference" style="fill:#27AAE1;stroke:none;" transform="matrix(1 0 0 1 339 1126)">
   <path d="M0.993654 0L3.63775 0L29.3281-67.1323L30.0303-67.1323L30.0303-70.459L28.1226-70.459ZM11.6885-24.4799L46.9815-24.4799L46.2315-26.7285L12.4385-26.7285ZM55.1196 0L57.7637 0L30.6382-70.459L29.4326-70.459L29.4326-67.1323Z"/>
  </g>
  <line id="Baseline-M" style="fill:none;stroke:#27AAE1;opacity:1;stroke-width:0.5;" x1="263" x2="3036" y1="1126" y2="1126"/>
  <line id="Capline-M" style="fill:none;stroke:#27AAE1;opacity:1;stroke-width:0.5;" x1="263" x2="3036" y1="1055.54" y2="1055.54"/>
  <g id="H-reference" style="fill:#27AAE1;stroke:none;" transform="matrix(1 0 0 1 339 1556)">
   <path d="M0.993654 0L3.63775 0L29.3281-67.1323L30.0303-67.1323L30.0303-70.459L28.1226-70.459ZM11.6885-24.4799L46.9815-24.4799L46.2315-26.7285L12.4385-26.7285ZM55.1196 0L57.7637 0L30.6382-70.459L29.4326-70.459L29.4326-67.1323Z"/>
  </g>
  <line id="Baseline-L" style="fill:none;stroke:#27AAE1;opacity:1;stroke-width:0.5;" x1="263" x2="3036" y1="1556" y2="1556"/>
  <line id="Capline-L" style="fill:none;stroke:#27AAE1;opacity:1;stroke-width:0.5;" x1="263" x2="3036" y1="1485.54" y2="1485.54"/>
  <line id="left-margin-Ultralight-S" style="fill:none;stroke:#00AEEF;stroke-width:0.5;opacity:1.0;" x1="439.711" x2="439.711" y1="600.785" y2="720.121"/>
  <line id="right-margin-Ultralight-S" style="fill:none;stroke:#00AEEF;stroke-width:0.5;opacity:1.0;" x1="679.711" x2="679.711" y1="600.785" y2="720.121"/>
  <line id="left-margin-Regular-S" style="fill:none;stroke:#00AEEF;stroke-width:0.5;opacity:1.0;" x1="1296.36" x2="1296.36" y1="600.785" y2="720.121"/>
  <line id="right-margin-Regular-S" style="fill:none;stroke:#00AEEF;stroke-width:0.5;opacity:1.0;" x1="1603.33" x2="1603.33" y1="600.785" y2="720.121"/>
  <line id="left-margin-Black-S" style="fill:none;stroke:#00AEEF;stroke-width:0.5;opacity:1.0;" x1="2813.4" x2="2813.4" y1="600.785" y2="720.121"/>
  <line id="right-margin-Black-S" style="fill:none;stroke:#00AEEF;stroke-width:0.5;opacity:1.0;" x1="3053.4" x2="3053.4" y1="600.785" y2="720.121"/>
 </g>
 <g id="Symbols">
  <g id="Black-S" transform="matrix(1 0 0 1 2813.4 696)">
   <path class="monochrome-0 multicolor-0:systemRedColor hierarchical-0:secondary SFSymbolsPreviewWireframe" d="M52.6284-67.6767C34.7792-67.6767 20.3109-53.2084 20.3109-35.3591C20.3109-17.5099 34.7792-3.0416 52.6284-3.0416L186.871-3.0416C204.72-3.0416 219.188-17.5099 219.188-35.3591C219.188-53.2084 204.72-67.6767 186.871-67.6767Z"/>
   <path class="monochrome-1 multicolor-1:white hierarchical-1:primary SFSymbolsPreviewWireframe" d="M46.7255-17.9552L56.4344-17.9552L56.4344-35.5897L61.4852-35.5897L54.1426-39.2802L70.2246-17.9552L78.1481-17.9552L78.1481-52.9915L68.437-52.9915L68.437-35.5897L63.3497-35.5897L70.6901-31.976L54.6873-52.9915L46.7255-52.9915ZM98.9781-16.9834C102.212-16.9834 104.969-17.4783 107.252-18.459C109.523-19.4399 111.263-20.839 112.457-22.6536C113.67-24.4594 114.283-26.5859 114.283-29.0244L114.283-29.0628C114.283-31.0065 113.876-32.6471 113.078-33.9963C112.271-35.3659 111.058-36.4824 109.426-37.3365C107.796-38.1908 105.717-38.8507 103.211-39.3186L99.6766-39.9785C98.5126-40.2113 97.5499-40.4532 96.8018-40.7152C96.0741-40.9978 95.5408-41.3369 95.2108-41.7255C94.8695-42.1346 94.7045-42.6295 94.7045-43.2013L94.7045-43.242C94.7045-43.755 94.8605-44.2227 95.1724-44.6385C95.5024-45.077 95.9861-45.425 96.6076-45.6873C97.2492-45.9403 98.0447-46.0759 98.9781-46.0759C99.9092-46.0759 100.737-45.9403 101.464-45.6873C102.212-45.425 102.804-45.0658 103.249-44.6001C103.688-44.1347 103.959-43.5718 104.065-42.9301L104.144-42.6589L113.582-42.6589L113.544-42.9301C113.358-45.1064 112.699-47.0182 111.564-48.6795C110.416-50.3293 108.805-51.6309 106.707-52.5642C104.61-53.4953 101.988-53.961 98.8606-53.961C96.0831-53.961 93.6176-53.4773 91.4413-52.5236C89.2874-51.5631 87.5969-50.2027 86.354-48.4467C85.111-46.7086 84.4895-44.65 84.4895-42.2702L84.4895-42.2316C84.4895-40.3672 84.858-38.7151 85.6151-37.2981C86.363-35.8994 87.5291-34.715 89.1111-33.7637C90.7136-32.8303 92.7722-32.1318 95.2876-31.6664L98.7839-31.0065C100.725-30.6652 102.086-30.2878 102.863-29.8787C103.659-29.4901 104.065-28.8686 104.065-28.0143C104.065-27.413 103.853-26.8685 103.444-26.3825C103.057-25.917 102.483-25.5373 101.735-25.2571C101.008-24.9949 100.124-24.8683 99.0935-24.8683C98.0562-24.8683 97.152-24.9949 96.3747-25.2571C95.5972-25.5373 94.978-25.917 94.5103-26.3825C94.065-26.8685 93.812-27.4018 93.735-27.9759L93.6944-28.1701L83.9064-28.1701L83.9448-27.7047C84.0421-25.4513 84.7224-23.5191 85.9653-21.9169C87.2083-20.3326 88.9282-19.1191 91.1316-18.2648C93.3259-17.4105 95.9477-16.9834 98.9781-16.9834ZM120.089-17.9552L130.383-17.9552L130.383-30.3442L143.357-30.3442L143.357-38.0757L130.383-38.0757L130.383-44.8329L144.715-44.8329L144.715-52.9915L120.089-52.9915ZM157.351-17.9552L167.06-17.9552L172.111-37.4926L172.576-37.4926L177.743-17.9552L187.375-17.9552L196.426-52.9915L185.822-52.9915L181.976-31.3929L181.51-31.3929L176.305-52.9915L168.343-52.9915L163.448-31.3929L162.944-31.3929L158.98-52.9915L148.3-52.9915Z"/>
  </g>
  <g id="Regular-S" transform="matrix(1 0 0 1 1296.36 696)">
   <path class="monochrome-0 multicolor-0:systemRedColor hierarchical-0:secondary SFSymbolsPreviewWireframe" d="M60.6686-80.0569C36.0529-80.0569 16.0997-60.1037 16.0997-35.488C16.0997-10.8723 36.0529 9.08089 60.6686 9.08089L245.801 9.08089C270.417 9.08089 290.37-10.8723 290.37-35.488C290.37-60.1037 270.417-80.0569 245.801-80.0569Z"/>
   <path class="monochrome-1 multicolor-1:white hierarchical-1:primary SFSymbolsPreviewWireframe" d="M52.5278-11.4863L65.9173-11.4863L65.9173-35.806L72.8829-35.806L62.7568-40.8956L84.9353-11.4863L95.8625-11.4863L95.8625-59.8046L82.47-59.8046L82.47-35.806L75.4542-35.806L85.5772-30.8224L63.508-59.8046L52.5278-59.8046ZM124.589-10.1462C129.049-10.1462 132.851-10.8286 136-12.1811C139.132-13.5339 141.532-15.4633 143.177-17.9658C144.851-20.4562 145.696-23.3888 145.696-26.7518L145.696-26.8048C145.696-29.4853 145.131-31.7479 144.034-33.6085C142.922-35.4973 141.248-37.0371 138.998-38.215C136.75-39.3932 133.883-40.3032 130.427-40.9485L125.552-41.8585C123.947-42.1796 122.619-42.5131 121.588-42.8745C120.584-43.2643 119.849-43.7319 119.394-44.2678C118.923-44.832 118.695-45.5145 118.695-46.3031L118.695-46.3591C118.695-47.0667 118.911-47.7117 119.338-48.2851C119.796-48.8898 120.463-49.3698 121.32-49.7314C122.205-50.0804 123.302-50.2674 124.589-50.2674C125.873-50.2674 127.014-50.0804 128.018-49.7314C129.049-49.3698 129.866-48.8743 130.48-48.2322C131.084-47.5903 131.458-46.814 131.605-45.9291L131.714-45.555L144.729-45.555L144.676-45.9291C144.421-48.9304 143.511-51.567 141.946-53.858C140.363-56.1332 138.141-57.9282 135.248-59.2154C132.356-60.4995 128.741-61.1417 124.427-61.1417C120.597-61.1417 117.196-60.4747 114.195-59.1593C111.225-57.8347 108.893-55.9586 107.179-53.5369C105.465-51.14 104.608-48.3009 104.608-45.019L104.608-44.9658C104.608-42.3945 105.116-40.1162 106.16-38.1621C107.192-36.233 108.8-34.5997 110.982-33.2877C113.192-32.0005 116.031-31.0373 119.499-30.3954L124.321-29.4853C126.998-29.0147 128.875-28.4942 129.947-27.93C131.044-27.394 131.605-26.537 131.605-25.3588C131.605-24.5296 131.312-23.7787 130.748-23.1083C130.215-22.4664 129.423-21.9428 128.392-21.5564C127.388-21.1947 126.169-21.0201 124.748-21.0201C123.318-21.0201 122.071-21.1947 120.999-21.5564C119.926-21.9428 119.069-22.4664 118.428-23.1083C117.813-23.7787 117.465-24.5141 117.355-25.3058L117.302-25.5737L103.804-25.5737L103.857-24.9318C103.991-21.8242 104.929-19.1595 106.643-16.9499C108.357-14.7651 110.729-13.0915 113.768-11.9133C116.794-10.7351 120.41-10.1462 124.589-10.1462ZM153.702-11.4863L167.899-11.4863L167.899-28.5719L185.792-28.5719L185.792-39.2343L167.899-39.2343L167.899-48.5533L187.665-48.5533L187.665-59.8046L153.702-59.8046ZM205.091-11.4863L218.48-11.4863L225.446-38.4302L226.088-38.4302L233.213-11.4863L246.496-11.4863L258.978-59.8046L244.355-59.8046L239.05-30.0182L238.408-30.0182L231.23-59.8046L220.25-59.8046L213.5-30.0182L212.801-30.0182L207.338-59.8046L192.608-59.8046Z"/>
  </g>
  <g id="Ultralight-S" transform="matrix(1 0 0 1 439.711 696)">
   <path class="monochrome-0 multicolor-0:systemRedColor hierarchical-0:secondary SFSymbolsPreviewWireframe" d="M52.607-67.709C34.752-67.709 20.2789-53.236 20.2789-35.3809C20.2789-17.5259 34.752-3.0529 52.607-3.0529L186.893-3.0529C204.748-3.0529 219.221-17.5259 219.221-35.3809C219.221-53.236 204.748-67.709 186.893-67.709Z"/>
   <path class="monochrome-1 multicolor-1:white hierarchical-1:primary SFSymbolsPreviewWireframe" d="M46.7021-17.9713L56.4141-17.9713L56.4141-35.6116L61.4667-35.6116L54.1217-39.3033L70.2089-17.9713L78.1349-17.9713L78.1349-53.019L68.4206-53.019L68.4206-35.6116L63.3317-35.6116L70.6745-31.9967L54.6665-53.019L46.7021-53.019ZM98.9717-16.9993C102.207-16.9993 104.965-17.4943 107.248-18.4753C109.52-19.4566 111.261-20.856 112.455-22.6712C113.669-24.4777 114.281-26.6048 114.281-29.0442L114.281-29.0826C114.281-31.0269 113.872-32.668 113.076-34.0176C112.269-35.3877 111.055-36.5046 109.423-37.359C107.793-38.2136 105.713-38.8737 103.206-39.3417L99.6704-40.0018C98.5061-40.2347 97.543-40.4766 96.7946-40.7387C96.0667-41.0215 95.5333-41.3606 95.2031-41.7494C94.8618-42.1586 94.6967-42.6536 94.6967-43.2257L94.6967-43.2663C94.6967-43.7795 94.8528-44.2474 95.1625-44.6633C95.4949-45.102 95.9787-45.4501 96.6004-45.7124C97.2423-45.9655 98.038-46.1012 98.9717-46.1012C99.9031-46.1012 100.731-45.9655 101.459-45.7124C102.207-45.4501 102.799-45.0907 103.244-44.6249C103.683-44.1593 103.954-43.5963 104.061-42.9544L104.14-42.683L113.58-42.683L113.542-42.9544C113.357-45.1314 112.697-47.0438 111.562-48.7056C110.413-50.3559 108.801-51.6579 106.703-52.5916C104.605-53.523 101.983-53.9888 98.8542-53.9888C96.0757-53.9888 93.6094-53.505 91.4324-52.5509C89.2778-51.5901 87.5868-50.2293 86.3435-48.4727C85.1001-46.7341 84.4784-44.6748 84.4784-42.2943L84.4784-42.2556C84.4784-40.3906 84.847-38.738 85.6043-37.3206C86.3525-35.9213 87.519-34.7366 89.1015-33.785C90.7045-32.8513 92.7638-32.1526 95.28-31.687L98.7774-31.0269C100.719-30.6855 102.08-30.308 102.858-29.8988C103.654-29.51 104.061-28.8883 104.061-28.0337C104.061-27.4322 103.848-26.8876 103.439-26.4013C103.052-25.9357 102.478-25.5559 101.73-25.2757C101.002-25.0133 100.118-24.8866 99.0871-24.8866C98.0495-24.8866 97.145-25.0133 96.3675-25.2757C95.5897-25.5559 94.968-25.9357 94.5024-26.4013C94.057-26.8876 93.8039-27.421 93.7246-27.9953L93.6862-28.1896L83.8951-28.1896L83.9335-27.724C84.0308-25.4699 84.7113-23.537 85.9547-21.9343C87.1981-20.3496 88.9185-19.1356 91.1227-18.281C93.3177-17.4264 95.9403-16.9993 98.9717-16.9993ZM120.089-17.9713L130.386-17.9713L130.386-30.3643L143.365-30.3643L143.365-38.0983L130.386-38.0983L130.386-44.8578L144.724-44.8578L144.724-53.019L120.089-53.019ZM157.364-17.9713L167.076-17.9713L172.128-37.5151L172.594-37.5151L177.762-17.9713L187.397-17.9713L196.451-53.019L185.844-53.019L181.996-31.4134L181.53-31.4134L176.324-53.019L168.36-53.019L163.463-31.4134L162.956-31.4134L158.993-53.019L148.309-53.019Z"/>
  </g>
 </g>
</svg>
