<?xml version="1.0" encoding="UTF-8"?>
<svg height="600" width="800" xmlns="http://www.w3.org/2000/svg" xmlns:xlink="http://www.w3.org/1999/xlink">
    <g id="Notes" font-family="'LucidaGrande', 'Lucida Grande', sans-serif" font-size="13">
        <rect fill="white" height="600.0" width="800.0" x="0.0" y="0.0" />
        <g font-size="13">
            <text x="18.0" y="176.0">Small</text>
            <text x="18.0" y="376.0">Medium</text>
            <text x="18.0" y="576.0">Large</text>
        </g>
        <g font-size="9">
            <text x="250.0" y="30.0">Ultralight</text>
            <text x="450.0" y="30.0">Regular</text>
            <text x="650.0" y="30.0">Black</text>
            <text id="template-version" fill="#505050" text-anchor="end" x="785.0" y="575.0">Template v.3.0</text>
            <a href="https://github.com/swhitty/SwiftDraw">
                <text fill="#505050" text-anchor="end" x="785.0" y="590.0">https://github.com/swhitty/SwiftDraw</text>
            </a>
        </g>
    </g>
    <g id="Guides" stroke="rgb(39, 170, 225)" stroke-width="0.5">
        <path id="Capline-S" d="M18,76 l800,0" />
        <path id="H-reference" d="M85,145.755 L87.685,145.755 L113.369,79.287 L114.052,79.287 L114.052,76 L112.148,76 L85,145.755 Z M95.693,121.536 L130.996,121.536 L130.263,119.313 L96.474,119.313 L95.693,121.536 Z M139.15,145.755 L141.787,145.755 L114.638,76 L113.466,76 L113.466,79.287 L139.15,145.755 Z" stroke="none" />
        <path id="Baseline-S" d="M18,146 l800,0" />
        <path id="left-margin-Ultralight-S" d="M211,56 l0,110" />
        <path id="right-margin-Ultralight-S" d="M319,56 l0,110" />
        <path id="left-margin-Regular-S" d="M411,56 l0,110" />
        <path id="right-margin-Regular-S" d="M519,56 l0,110" />
        <path id="left-margin-Black-S" d="M611,56 l0,110" />
        <path id="right-margin-Black-S" d="M719,56 l0,110" />
        <path id="Capline-M" d="M18,276 l800,0" />
        <path id="Baseline-M" d="M18,346 l800,0" />
        <path id="Capline-L" d="M18,476 l800,0" />
        <path id="Baseline-L" d="M18,546 l800,0" />
    </g>
    <g id="Symbols">
        <g id="Ultralight-S">
            <path d="M295.496,83.023 C289.79,80.404 283.769,78.536 277.584,77.467 C277.468,77.445 277.352,77.5 277.296,77.603 C276.522,78.979 275.665,80.774 275.065,82.185 C268.301,81.172 261.572,81.172 254.947,82.185 C254.347,80.742 253.459,78.979 252.682,77.603 C252.623,77.503 252.509,77.449 252.394,77.467 C246.208,78.534 240.187,80.402 234.482,83.022 C234.433,83.043 234.392,83.079 234.364,83.124 C222.956,100.168 219.83,116.793 221.364,133.212 C221.373,133.293 221.414,133.367 221.478,133.418 C229.005,138.945 236.296,142.301 243.452,144.525 C243.566,144.559 243.689,144.519 243.761,144.424 C245.453,142.113 246.962,139.675 248.256,137.112 C248.292,137.041 248.296,136.958 248.267,136.884 C248.238,136.81 248.178,136.752 248.104,136.725 C245.71,135.817 243.431,134.71 241.239,133.453 C241.158,133.405 241.106,133.32 241.1,133.226 C241.094,133.132 241.136,133.042 241.211,132.985 C241.672,132.639 242.134,132.279 242.574,131.916 C242.654,131.85 242.764,131.835 242.859,131.878 C257.261,138.453 272.852,138.453 287.084,131.878 C287.178,131.833 287.291,131.846 287.372,131.912 C287.812,132.275 288.274,132.639 288.739,132.985 C288.814,133.041 288.856,133.131 288.851,133.225 C288.846,133.319 288.795,133.404 288.714,133.452 C286.521,134.733 284.224,135.827 281.847,136.721 C281.772,136.749 281.713,136.808 281.685,136.883 C281.656,136.958 281.661,137.041 281.698,137.112 C283.019,139.671 284.528,142.109 286.189,144.421 C286.259,144.518 286.383,144.561 286.498,144.525 C293.688,142.301 300.979,138.945 308.506,133.418 C308.572,133.37 308.614,133.296 308.621,133.215 C310.456,114.233 305.548,97.744 295.61,83.127 C295.586,83.08 295.545,83.043 295.496,83.022 Z M250.407,123.214 C246.071,123.214 242.498,119.234 242.498,114.345 C242.498,109.456 246.001,105.475 250.407,105.475 C254.847,105.475 258.385,109.491 258.315,114.345 C258.315,119.234 254.812,123.214 250.407,123.214 Z M279.647,123.214 C275.312,123.214 271.739,119.234 271.739,114.345 C271.739,109.456 275.242,105.475 279.647,105.475 C284.087,105.475 287.625,109.491 287.556,114.345 C287.556,119.234 284.087,123.214 279.647,123.214 Z" />
        </g>
        <g id="Regular-S">
            <path d="M495.495,83.023 C489.79,80.404 483.769,78.536 477.584,77.467 C477.468,77.445 477.352,77.5 477.296,77.603 C476.522,78.979 475.665,80.774 475.065,82.185 C468.301,81.172 461.572,81.172 454.947,82.185 C454.347,80.742 453.459,78.979 452.682,77.603 C452.623,77.503 452.509,77.449 452.394,77.467 C446.208,78.534 440.187,80.402 434.482,83.022 C434.433,83.043 434.392,83.079 434.364,83.124 C422.956,100.168 419.83,116.793 421.364,133.212 C421.372,133.293 421.414,133.367 421.478,133.418 C429.005,138.945 436.296,142.301 443.452,144.525 C443.566,144.559 443.689,144.519 443.761,144.424 C445.453,142.113 446.962,139.675 448.256,137.112 C448.292,137.041 448.296,136.958 448.267,136.884 C448.238,136.81 448.178,136.752 448.104,136.725 C445.71,135.817 443.431,134.71 441.239,133.453 C441.158,133.405 441.106,133.32 441.1,133.226 C441.094,133.132 441.136,133.042 441.211,132.985 C441.672,132.639 442.134,132.279 442.574,131.916 C442.654,131.85 442.764,131.835 442.859,131.878 C457.261,138.453 472.852,138.453 487.084,131.878 C487.178,131.833 487.29,131.846 487.372,131.912 C487.812,132.275 488.274,132.639 488.739,132.985 C488.814,133.041 488.856,133.131 488.851,133.225 C488.846,133.319 488.795,133.404 488.714,133.452 C486.521,134.733 484.224,135.827 481.847,136.721 C481.772,136.749 481.713,136.808 481.685,136.883 C481.656,136.958 481.661,137.041 481.698,137.112 C483.019,139.671 484.528,142.109 486.189,144.421 C486.259,144.518 486.383,144.561 486.498,144.525 C493.688,142.301 500.979,138.945 508.506,133.418 C508.572,133.37 508.614,133.296 508.621,133.215 C510.456,114.233 505.548,97.744 495.61,83.127 C495.586,83.08 495.545,83.043 495.496,83.022 Z M450.407,123.214 C446.071,123.214 442.498,119.234 442.498,114.345 C442.498,109.456 446.001,105.475 450.407,105.475 C454.847,105.475 458.385,109.491 458.315,114.345 C458.315,119.234 454.812,123.214 450.407,123.214 Z M479.647,123.214 C475.312,123.214 471.739,119.234 471.739,114.345 C471.739,109.456 475.242,105.475 479.647,105.475 C484.087,105.475 487.625,109.491 487.556,114.345 C487.556,119.234 484.087,123.214 479.647,123.214 Z" />
        </g>
        <g id="Black-S">
            <path d="M695.495,83.023 C689.79,80.404 683.769,78.536 677.583,77.467 C677.468,77.445 677.352,77.5 677.296,77.603 C676.522,78.979 675.665,80.774 675.065,82.185 C668.301,81.172 661.572,81.172 654.947,82.185 C654.347,80.742 653.459,78.979 652.682,77.603 C652.623,77.503 652.509,77.449 652.394,77.467 C646.208,78.534 640.187,80.402 634.482,83.022 C634.433,83.043 634.392,83.079 634.364,83.124 C622.956,100.168 619.83,116.793 621.364,133.212 C621.372,133.293 621.414,133.367 621.478,133.418 C629.005,138.945 636.296,142.301 643.452,144.525 C643.566,144.559 643.689,144.519 643.761,144.424 C645.453,142.113 646.962,139.675 648.256,137.112 C648.292,137.041 648.296,136.958 648.267,136.884 C648.238,136.81 648.178,136.752 648.104,136.725 C645.71,135.817 643.431,134.71 641.239,133.453 C641.158,133.405 641.106,133.32 641.1,133.226 C641.094,133.132 641.136,133.042 641.211,132.985 C641.672,132.639 642.134,132.279 642.574,131.916 C642.654,131.85 642.764,131.835 642.859,131.878 C657.261,138.453 672.852,138.453 687.084,131.878 C687.178,131.833 687.291,131.846 687.372,131.912 C687.812,132.275 688.274,132.639 688.739,132.985 C688.814,133.041 688.856,133.131 688.851,133.225 C688.846,133.319 688.795,133.404 688.714,133.452 C686.521,134.733 684.224,135.827 681.847,136.721 C681.772,136.749 681.713,136.808 681.685,136.883 C681.656,136.958 681.661,137.041 681.698,137.112 C683.019,139.671 684.528,142.109 686.189,144.421 C686.259,144.518 686.383,144.561 686.498,144.525 C693.688,142.301 700.979,138.945 708.506,133.418 C708.572,133.37 708.614,133.296 708.621,133.215 C710.456,114.233 705.548,97.744 695.61,83.127 C695.586,83.08 695.545,83.043 695.496,83.022 Z M650.407,123.214 C646.071,123.214 642.498,119.234 642.498,114.345 C642.498,109.456 646.001,105.475 650.407,105.475 C654.847,105.475 658.385,109.491 658.315,114.345 C658.315,119.234 654.812,123.214 650.407,123.214 Z M679.647,123.214 C675.312,123.214 671.739,119.234 671.739,114.345 C671.739,109.456 675.242,105.475 679.647,105.475 C684.087,105.475 687.625,109.491 687.556,114.345 C687.556,119.234 684.087,123.214 679.647,123.214 Z" />
        </g>
    </g>
</svg>