<?xml version="1.0" encoding="UTF-8"?><svg id="Layer_1" xmlns="http://www.w3.org/2000/svg" viewBox="0 0 3300 2200"><defs><style>.cls-1{font-family:Helvetica-Bold, Helvetica;font-weight:700;}.cls-1,.cls-2{font-size:13px;isolation:isolate;}.cls-3{letter-spacing:-.02em;}.cls-4{fill:#fff;}.cls-5{fill:#27aae1;}.cls-6{stroke:#00aeef;}.cls-6,.cls-7,.cls-8{fill:none;stroke-width:.5px;}.cls-7{stroke:#000;}.cls-8{stroke:#27aae1;}.cls-9{letter-spacing:-.07em;}.cls-10{letter-spacing:-.05em;}.cls-11{letter-spacing:-.11em;}.cls-2{font-family:Helvetica, Helvetica;}</style></defs><g id="Notes"><rect id="artboard" class="cls-4" width="3300" height="2200"/><line class="cls-7" x1="263" y1="292" x2="3036" y2="292"/><text class="cls-1" transform="translate(263 322)"><tspan class="cls-3" x="0" y="0">W</tspan><tspan x="12.04" y="0">eight/Scale </tspan><tspan class="cls-10" x="84.29" y="0">V</tspan><tspan x="92.25" y="0">ariations</tspan></text><text class="cls-2" transform="translate(534.06 322)"><tspan x="0" y="0">Ultralight</tspan></text><text class="cls-2" transform="translate(843.78 322)"><tspan x="0" y="0">Thin</tspan></text><text class="cls-2" transform="translate(1139.04 322)"><tspan x="0" y="0">Light</tspan></text><text class="cls-2" transform="translate(1427.08 322)"><tspan x="0" y="0">Regular</tspan></text><text class="cls-2" transform="translate(1723.44 322)"><tspan x="0" y="0">Medium</tspan></text><text class="cls-2" transform="translate(2016.17 322)"><tspan x="0" y="0">Semibold</tspan></text><text class="cls-2" transform="translate(2326.97 322)"><tspan x="0" y="0">Bold</tspan></text><text class="cls-2" transform="translate(2618.27 322)"><tspan x="0" y="0">Heavy</tspan></text><text class="cls-2" transform="translate(2917.51 322)"><tspan x="0" y="0">Black</tspan></text><line class="cls-7" x1="263" y1="1903" x2="3036" y2="1903"/><path d="m272.25,1933.83c4.31,0,7.89-3.57,7.89-7.88s-3.59-7.88-7.9-7.88-7.87,3.57-7.87,7.88,3.58,7.88,7.88,7.88Zm0-1.48c-3.54,0-6.38-2.84-6.38-6.4s2.82-6.4,6.37-6.4,6.41,2.84,6.41,6.4-2.84,6.4-6.4,6.4Zm-3.59-6.4c0,.43.3.72.75.72h2.1v2.12c0,.44.29.74.72.74s.74-.3.74-.74v-2.12h2.12c.44,0,.74-.29.74-.72s-.3-.74-.74-.74h-2.12v-2.11c0-.45-.29-.75-.74-.75s-.72.3-.72.75v2.11h-2.1c-.45,0-.75.3-.75.74Z"/><path d="m293.58,1935.91c5.45,0,9.96-4.52,9.96-9.96s-4.52-9.96-9.97-9.96-9.95,4.51-9.95,9.96,4.52,9.96,9.96,9.96Zm0-1.66c-4.61,0-8.29-3.69-8.29-8.3s3.67-8.3,8.28-8.3,8.31,3.69,8.31,8.3-3.69,8.3-8.3,8.3Zm-4.53-8.3c0,.48.33.8.83.8h2.87v2.88c0,.49.33.83.81.83s.83-.33.83-.83v-2.88h2.88c.49,0,.83-.32.83-.8s-.34-.83-.83-.83h-2.88v-2.87c0-.5-.34-.84-.83-.84s-.81.34-.81.84v2.87h-2.87c-.5,0-.83.34-.83.83Z"/><path d="m320.62,1938.66c6.96,0,12.72-5.76,12.72-12.71s-5.77-12.72-12.73-12.72-12.71,5.76-12.71,12.72,5.76,12.71,12.71,12.71Zm0-1.82c-6.04,0-10.89-4.86-10.89-10.9s4.84-10.9,10.88-10.9,10.91,4.85,10.91,10.9-4.85,10.9-10.9,10.9Zm-5.77-10.9c0,.52.37.88.92.88h3.95v3.96c0,.54.37.92.89.92s.91-.37.91-.92v-3.96h3.96c.54,0,.92-.36.92-.88,0-.55-.37-.92-.92-.92h-3.96v-3.95c0-.55-.37-.93-.91-.93s-.89.38-.89.93v3.95h-3.95c-.55,0-.92.37-.92.92Z"/><text class="cls-1" transform="translate(263 1953)"><tspan x="0" y="0">Design </tspan><tspan class="cls-10" x="46.95" y="0">V</tspan><tspan x="54.91" y="0">ariations</tspan></text><text class="cls-2" transform="translate(263 1971)"><tspan x="0" y="0">Symbols are supported in up to nine weights and three scales.</tspan></text><text class="cls-2" transform="translate(263 1989)"><tspan x="0" y="0">For optimal layout with text and other symbols, vertically align</tspan></text><text class="cls-2" transform="translate(263 2007)"><tspan x="0" y="0">symbols with the adjacent text.</tspan></text><line class="cls-6" x1="776" y1="1919" x2="776" y2="1933"/><path d="m779.31,1933.16c.52,0,.77-.2.96-.74l1.26-3.45h5.76l1.26,3.45c.19.55.44.74.95.74s.85-.31.85-.8c0-.17-.03-.32-.11-.53l-4.58-12.2c-.22-.6-.62-.9-1.25-.9s-1.02.29-1.23.89l-4.58,12.22c-.08.21-.11.36-.11.53,0,.49.31.79.82.79Zm2.7-5.67l2.37-6.57h.05l2.37,6.57h-4.79Z"/><line class="cls-6" x1="793.2" y1="1919" x2="793.2" y2="1933"/><text class="cls-1" transform="translate(776 1953)"><tspan x="0" y="0">Margins</tspan></text><text class="cls-2" transform="translate(776 1971)"><tspan x="0" y="0">Leading and trailing margins on the left and right side of each symbol</tspan></text><text class="cls-2" transform="translate(776 1989)"><tspan x="0" y="0">can be adjusted by modifying the x-location of the margin guidelines.</tspan></text><text class="cls-2" transform="translate(776 2007)"><tspan x="0" y="0">Modifications are automatically applied proportionally to all</tspan></text><text class="cls-2" transform="translate(776 2025)"><tspan x="0" y="0">scales and weights.</tspan></text><path d="m1291.84,1934.87l1.7,1.71c.86.87,1.85.81,2.77-.21l10.69-11.79-.97-.98-10.62,11.68c-.35.4-.68.5-1.15.03l-1.17-1.16c-.47-.46-.36-.8.04-1.16l11.47-10.8-.98-.97-11.59,10.89c-.99.92-1.06,1.89-.21,2.76Zm6.42-18.19c-.42.41-.45.99-.21,1.38.23.36.69.6,1.34.43,1.46-.34,2.99-.4,4.41.54l-.59,1.46c-.34.83-.17,1.42.37,1.96l2.29,2.31c.49.49.9.51,1.46.41l1.06-.2.66.67-.04.56c-.04.5.09.88.58,1.36l.76.74c.48.48,1.09.51,1.56.04l2.91-2.92c.47-.47.45-1.06-.03-1.54l-.77-.76c-.48-.48-.85-.63-1.33-.6l-.58.05-.64-.63.24-1.12c.13-.57-.03-1.01-.62-1.59l-2.2-2.19c-3.34-3.32-7.77-3.24-10.66-.35Zm1.49.37c2.43-1.78,5.72-1.47,7.95.75l2.43,2.41c.23.23.27.42.21.76l-.32,1.48,1.5,1.48.99-.06c.25,0,.33,0,.53.21l.58.58-2.44,2.44-.58-.58c-.2-.2-.22-.27-.21-.54l.07-.98-1.49-1.48-1.52.25c-.32.07-.47.04-.71-.2l-2-2c-.25-.23-.28-.4-.13-.77l.88-2.09c-1.56-1.46-3.59-2.08-5.62-1.48-.16.04-.21-.09-.09-.2Z"/><text class="cls-1" transform="translate(1289 1953)"><tspan x="0" y="0">Exporting</tspan></text><text class="cls-2" transform="translate(1289 1971)"><tspan x="0" y="0">Symbols should be outlined when exporting to ensure the</tspan></text><text class="cls-2" transform="translate(1289 1989)"><tspan x="0" y="0">design is preserved when submitting to Xcode.</tspan></text><text id="template-version" class="cls-2" transform="translate(2952.41 1933)"><tspan class="cls-11" x="0" y="0">T</tspan><tspan x="6.5" y="0">emplate </tspan><tspan class="cls-9" x="56.36" y="0">v</tspan><tspan x="61.9" y="0">.4.0</tspan></text><text class="cls-2" transform="translate(2865.46 1951)"><tspan x="0" y="0">Requires Xcode 14 or greater</tspan></text><text id="descriptive-name" class="cls-2" transform="translate(2822.81 1969)"><tspan x="0" y="0">Generated from square.and.arro</tspan><tspan class="cls-10" x="186.44" y="0">w</tspan><tspan x="195.11" y="0">.up</tspan></text><text class="cls-2" transform="translate(2912.41 1987)"><tspan class="cls-10" x="0" y="0">T</tspan><tspan x="7.23" y="0">ypeset at 100 points</tspan></text><text class="cls-2" transform="translate(263 726)"><tspan x="0" y="0">Small</tspan></text><text class="cls-2" transform="translate(263 1156)"><tspan x="0" y="0">Medium</tspan></text><text class="cls-2" transform="translate(263 1586)"><tspan x="0" y="0">Large</tspan></text></g><g id="Guides"><g id="H-reference"><path class="cls-5" d="m339.99,696h2.64l25.69-67.13h.7v-3.33h-1.91l-27.13,70.46Zm10.69-24.48h35.29l-.75-2.25h-33.79l-.75,2.25Zm43.43,24.48h2.64l-27.13-70.46h-1.21v3.33l25.69,67.13Z"/></g><line id="Baseline-S" class="cls-8" x1="263" y1="696" x2="3036" y2="696"/><line id="Capline-S" class="cls-8" x1="263" y1="625.54" x2="3036" y2="625.54"/><g id="H-reference-2"><path class="cls-5" d="m339.99,1126h2.64l25.69-67.13h.7v-3.33h-1.91l-27.13,70.46Zm10.69-24.48h35.29l-.75-2.25h-33.79l-.75,2.25Zm43.43,24.48h2.64l-27.13-70.46h-1.21v3.33l25.69,67.13Z"/></g><line id="Baseline-M" class="cls-8" x1="263" y1="1126" x2="3036" y2="1126"/><line id="Capline-M" class="cls-8" x1="263" y1="1055.54" x2="3036" y2="1055.54"/><g id="H-reference-3"><path class="cls-5" d="m339.99,1556h2.64l25.69-67.13h.7v-3.33h-1.91l-27.13,70.46Zm10.69-24.48h35.29l-.75-2.25h-33.79l-.75,2.25Zm43.43,24.48h2.64l-27.13-70.46h-1.21v3.33l25.69,67.13Z"/></g><line id="Baseline-L" class="cls-8" x1="263" y1="1556" x2="3036" y2="1556"/><line id="Capline-L" class="cls-8" x1="263" y1="1485.54" x2="3036" y2="1485.54"/><line id="left-margin-Ultralight-S" class="cls-6" x1="517.8" y1="600.78" x2="517.8" y2="720.12"/><line id="right-margin-Ultralight-S" class="cls-6" x1="601.62" y1="600.78" x2="601.62" y2="720.12"/><line id="left-margin-Regular-S" class="cls-6" x1="1405.73" y1="600.78" x2="1405.73" y2="720.12"/><line id="right-margin-Regular-S" class="cls-6" x1="1493.96" y1="600.78" x2="1493.96" y2="720.12"/><line id="left-margin-Black-S" class="cls-6" x1="2885.99" y1="600.78" x2="2885.99" y2="720.12"/><line id="right-margin-Black-S" class="cls-6" x1="2980.81" y1="600.78" x2="2980.81" y2="720.12"/></g><g id="Symbols"><g id="Black-S"><path d="m2977,637.01v5.84c-.2.48-.19,1.01-.33,1.51-.27,1-.56,2-.97,2.94-.7,1.62-1.64,3.09-2.79,4.44-1.26,1.48-2.68,2.77-4.22,3.95-.99.76-2.04,1.44-3.1,2.09-.34.21-.4.51-.21.79.6.84,1.15,1.71,1.92,2.41,1.42,1.29,3.11,2.05,4.94,2.54.61.16.94.67.85,1.28-.22,1.45-.7,2.83-1.32,4.15-.95,2-2.12,3.88-3.33,5.74-2.09,3.18-4.63,5.96-7.56,8.39-1.21,1-2.48,1.92-3.74,2.86-1.85,1.39-3.86,2.48-5.97,3.41-1.61.71-3.25,1.35-4.96,1.8-.33.09-.7.14-1.02.37-.43.32-.49.78-.67,1.23-.4.99-.81,1.97-1.26,2.94-1.04,2.26-2.6,4.05-4.62,5.46-.99.69-2.14,1.01-3.26,1.4h-3.16c-2.61-.68-4.71-2.14-6.33-4.27-1.26-1.65-2.15-3.51-2.79-5.48-.23-.72-.47-1.31-1.44-1.55-2.04-.5-3.99-1.32-5.92-2.19-2.27-1.03-4.33-2.37-6.3-3.85-1.62-1.22-3.21-2.47-4.7-3.84-.94-.86-1.84-1.76-2.66-2.74-1.27-1.52-2.42-3.13-3.5-4.79-.94-1.45-1.77-2.95-2.55-4.48-.69-1.34-1.18-2.77-1.5-4.26-.18-.85.02-1.34.82-1.63.7-.26,1.42-.45,2.11-.74,1.98-.82,3.42-2.28,4.61-4.03.37-.55.34-.74-.24-1.06-1.33-.72-2.57-1.57-3.72-2.55-1.87-1.58-3.6-3.29-4.93-5.38-1.4-2.21-2.23-4.61-2.57-7.2-.08-.63.04-1.28-.21-1.88v-1.75c.14-.06.13-.19.12-.3-.05-1.29.24-2.51.53-3.76.45-1.98,1.19-3.83,2.19-5.58,1.16-2.04,2.55-3.9,4.37-5.43,1.26-1.05,2.64-1.88,4.11-2.54,1.61-.71,3.32-1.06,5.09-1.15,1.23-.06,2.45.04,3.65.27,1.19.22,2.31.67,3.41,1.18,2.08.96,3.9,2.25,5.43,3.94.33.37.6.31.95.18.18-.07.35-.17.53-.24,1.34-.53,2.73-.89,4.15-1.15.21-.04.46-.05.52-.3.06-.26-.21-.35-.37-.47-2.16-1.57-4.36-3.09-6.36-4.86-1.44-1.28-2.82-2.62-3.96-4.19-.61-.83-1-1.75-1.36-2.7-.38-.99.18-1.99,1.12-2.4.4-.18.85-.05,1.23-.28h.94c.78.23,1.6.11,2.39.33.44.12.88.29,1.33.38,1.72.31,3.39.84,5.04,1.41,1.45.5,2.86,1.09,4.24,1.76,1.68.83,3.35,1.68,4.83,2.83,1.03.79,1.99,1.67,2.98,2.51.65.55.86.48,1.3-.19.69-1.05.85-2.29,1.36-3.41.54-1.18,1.14-2.32,2.07-3.22.84-.81,1.87-.96,2.5-.06.88,1.27,1.18,2.73,1.39,4.22.11.77.12,1.55.3,2.3.38,1.58.35,3.19.51,4.78.07.75.02,1.52.01,2.27,0,.38.2.65.52.76.3.1.66.14.82-.29.05-.13.19-.24.31-.34,1.47-1.31,2.97-2.57,4.76-3.44,1.27-.62,2.58-1.11,3.95-1.35,1.3-.23,2.64-.15,3.96-.12,1.66.04,3.24.47,4.74,1.12,1.4.61,2.68,1.46,3.85,2.47,1.41,1.22,2.59,2.62,3.65,4.14.93,1.34,1.66,2.79,2.22,4.31.4,1.07.76,2.17.91,3.32.06.49.22.96.34,1.44h0Zm-44.52,47.79c0-.92,0-1.83,0-2.74,0-.35-.09-.63-.49-.65-1.19-.07-2.26-.56-3.35-.96-1.35-.49-2.58-1.24-3.92-1.75-.6-.23-1.02-.12-1.25.43-.31.78-.49,1.62-.31,2.44.34,1.59.29,3.22.65,4.81.31,1.34.54,2.71.93,4.03.42,1.4.89,2.8,1.53,4.12,1.06,2.16,2.48,3.98,4.64,5.13,1.59.85,3.27.95,4.92.32,2.31-.87,3.92-2.54,5.08-4.71.77-1.44,1.29-2.98,1.81-4.52.37-1.08.61-2.22.83-3.34.23-1.21.39-2.43.55-3.64.2-1.44.45-2.87.16-4.33-.13-.69-.73-1.03-1.37-.75-1.35.58-2.7,1.17-4.05,1.77-1.06.47-2.14.84-3.3.94-.49.04-.62.38-.59.77.12,1.79-.04,3.58.02,5.36,0,.25.04.54-.15.72-.4.37-.86.66-1.45.47-.53-.17-.9-.75-.9-1.36,0-.86,0-1.71,0-2.57h0Zm29.45-23.47c.14-1.49-.38-2.86-.96-4.2-.68-1.59-1.74-2.9-2.94-4.13-1.4-1.43-3.02-2.51-4.93-3.06-1.75-.51-3.56-.66-5.4-.43-1.63.2-3.14.71-4.54,1.51-2.29,1.29-3.89,3.25-5.05,5.58-1.03,2.08-1.31,4.25-.6,6.5.4,1.28,2.18,2.25,3.67,1.66,1.77-.7,3.48-1.63,5.46-1.73,1.27-.07,2.52.02,3.73.37,1.39.41,2.68,1.06,3.99,1.68,1.24.59,2.51,1.12,3.94.91,1-.15,1.91-.5,2.61-1.3.84-.96,1.13-2.08,1.03-3.34h0Zm-56.2.02c0,.51-.04,1.01.01,1.51.03.29.24.57.32.86.29,1.07,2.15,2.18,3.08,2.27,1.71.17,3.22-.48,4.7-1.14,1.47-.65,2.88-1.42,4.49-1.67,1.62-.25,3.24-.27,4.82.26,1.16.39,2.3.84,3.44,1.28,1.26.48,2.76-.1,3.39-1.3.42-.8.47-1.66.51-2.52.1-2.13-.61-4.05-1.78-5.79-1.06-1.58-2.39-2.87-4.01-3.91-1.5-.96-3.08-1.66-4.84-1.78-1.89-.13-3.76.11-5.59.73-2.48.85-4.5,2.27-6.03,4.36-1.49,2.03-2.59,4.23-2.5,6.83h0Zm27.7,15.02c.73.05,1.47-.08,2.22-.21,1.6-.28,3.04-.82,4.2-2.01,1.74-1.78,1.65-3.71.19-5.44-1.25-1.47-2.97-2.06-4.86-2.28-1.98-.23-3.89-.07-5.69.83-.99.49-1.94,1.08-2.47,2.07-1.12,2.08-.42,4.1,1.35,5.42,1.47,1.09,3.16,1.73,5.07,1.62h0Z"/></g><g id="Regular-S"><path d="m1489.96,640.38v5.44c-.18.45-.18.94-.3,1.41-.26.93-.52,1.86-.9,2.74-.65,1.51-1.53,2.88-2.6,4.14-1.17,1.38-2.5,2.59-3.93,3.68-.93.71-1.9,1.34-2.89,1.95-.32.2-.38.48-.19.73.56.78,1.07,1.59,1.79,2.25,1.32,1.2,2.9,1.91,4.6,2.37.56.15.88.62.79,1.2-.2,1.36-.65,2.64-1.23,3.86-.89,1.86-1.97,3.62-3.11,5.35-1.95,2.97-4.32,5.56-7.05,7.82-1.13.93-2.31,1.79-3.48,2.67-1.73,1.3-3.6,2.31-5.56,3.17-1.5.66-3.03,1.26-4.62,1.67-.31.08-.65.13-.95.34-.4.3-.46.73-.63,1.14-.37.92-.76,1.84-1.17,2.74-.97,2.11-2.42,3.77-4.3,5.09-.92.64-1.99.95-3.04,1.31h-2.94c-2.43-.64-4.39-1.99-5.9-3.98-1.17-1.54-2-3.27-2.6-5.11-.22-.67-.44-1.22-1.34-1.45-1.9-.47-3.72-1.23-5.52-2.04-2.12-.96-4.03-2.2-5.88-3.59-1.51-1.13-2.99-2.3-4.38-3.58-.87-.8-1.72-1.64-2.48-2.56-1.18-1.42-2.26-2.92-3.26-4.47-.87-1.35-1.65-2.75-2.37-4.17-.64-1.25-1.1-2.58-1.4-3.97-.17-.79.02-1.25.76-1.52.65-.24,1.33-.42,1.97-.69,1.85-.76,3.19-2.13,4.29-3.75.35-.51.32-.69-.22-.99-1.24-.67-2.39-1.47-3.47-2.38-1.74-1.48-3.36-3.06-4.59-5.01-1.31-2.06-2.08-4.29-2.4-6.71-.08-.58.03-1.19-.2-1.75v-1.63c.13-.06.12-.18.11-.28-.05-1.2.23-2.34.49-3.51.42-1.85,1.11-3.57,2.04-5.2,1.08-1.9,2.37-3.64,4.07-5.06,1.17-.98,2.46-1.76,3.83-2.37,1.5-.67,3.1-.99,4.74-1.07,1.14-.06,2.28.04,3.4.25,1.1.21,2.15.63,3.18,1.1,1.94.9,3.64,2.1,5.06,3.67.31.35.56.29.88.16.17-.06.32-.16.49-.23,1.25-.5,2.55-.83,3.87-1.07.2-.04.43-.05.48-.28.06-.24-.19-.33-.34-.44-2.01-1.47-4.06-2.88-5.92-4.53-1.34-1.2-2.63-2.44-3.69-3.91-.56-.78-.93-1.63-1.27-2.52-.35-.92.17-1.86,1.05-2.24.38-.16.79-.05,1.14-.26h.87c.72.21,1.49.1,2.23.3.41.11.82.27,1.24.35,1.61.29,3.16.78,4.7,1.31,1.35.46,2.67,1.01,3.95,1.64,1.57.77,3.12,1.56,4.51,2.64.96.74,1.85,1.56,2.78,2.34.6.51.8.45,1.21-.18.64-.98.8-2.14,1.27-3.18.51-1.1,1.07-2.16,1.93-3,.79-.76,1.74-.9,2.33-.06.82,1.18,1.1,2.55,1.3,3.94.1.71.11,1.45.28,2.14.36,1.47.33,2.97.47,4.46.07.7.02,1.41.01,2.12,0,.35.18.61.48.71.28.09.61.13.77-.27.05-.13.18-.22.29-.32,1.37-1.22,2.77-2.4,4.44-3.21,1.18-.57,2.4-1.03,3.68-1.26,1.21-.22,2.46-.14,3.69-.11,1.54.04,3.02.44,4.42,1.05,1.31.57,2.5,1.36,3.59,2.3,1.31,1.13,2.42,2.44,3.4,3.86.86,1.25,1.54,2.6,2.07,4.02.37,1,.71,2.02.85,3.09.06.46.21.9.31,1.35h0Zm-41.49,44.55c0-.85,0-1.7,0-2.56,0-.33-.08-.58-.46-.61-1.11-.07-2.1-.52-3.13-.9-1.26-.46-2.4-1.15-3.65-1.63-.56-.21-.95-.11-1.16.4-.29.73-.46,1.51-.29,2.27.32,1.48.27,3,.61,4.48.29,1.25.51,2.52.87,3.75.39,1.31.83,2.61,1.43,3.84.99,2.02,2.31,3.71,4.33,4.78,1.48.79,3.05.88,4.59.3,2.15-.81,3.66-2.37,4.73-4.39.72-1.35,1.2-2.78,1.69-4.21.34-1.01.57-2.07.77-3.11.22-1.12.36-2.26.51-3.4.18-1.34.42-2.68.15-4.03-.13-.64-.68-.96-1.28-.7-1.26.54-2.52,1.09-3.78,1.65-.99.43-2,.79-3.08.88-.46.04-.58.36-.55.72.11,1.67-.03,3.33.02,5,0,.23.04.51-.14.67-.38.35-.81.62-1.36.44-.49-.16-.84-.7-.84-1.26,0-.8,0-1.6,0-2.39h0Zm27.45-21.88c.13-1.38-.36-2.66-.89-3.92-.63-1.48-1.62-2.71-2.74-3.85-1.3-1.34-2.82-2.34-4.6-2.86-1.63-.48-3.32-.61-5.03-.4-1.52.19-2.92.67-4.23,1.41-2.14,1.21-3.63,3.03-4.7,5.2-.96,1.94-1.22,3.96-.56,6.06.38,1.19,2.03,2.1,3.42,1.55,1.65-.66,3.24-1.52,5.09-1.62,1.18-.06,2.35.02,3.47.35,1.29.38,2.5.99,3.72,1.57,1.15.55,2.34,1.04,3.67.84.93-.14,1.78-.47,2.43-1.21.79-.89,1.05-1.94.96-3.12h0Zm-52.38.02c0,.47-.04.95.01,1.41.03.27.22.53.3.8.27.99,2,2.03,2.87,2.11,1.6.16,3-.45,4.38-1.06,1.37-.61,2.69-1.33,4.18-1.55,1.51-.23,3.02-.25,4.49.24,1.08.36,2.14.78,3.2,1.19,1.18.45,2.57-.09,3.16-1.21.39-.74.44-1.55.47-2.35.09-1.99-.57-3.77-1.66-5.4-.99-1.47-2.23-2.68-3.74-3.64-1.4-.89-2.88-1.55-4.51-1.66-1.76-.13-3.5.1-5.21.68-2.31.79-4.19,2.12-5.62,4.07-1.39,1.89-2.41,3.94-2.33,6.37h0Zm25.82,14c.68.04,1.37-.07,2.07-.19,1.49-.26,2.83-.76,3.92-1.87,1.62-1.66,1.53-3.46.18-5.07-1.16-1.37-2.77-1.92-4.53-2.12-1.85-.21-3.62-.07-5.31.77-.92.46-1.81,1-2.31,1.93-1.04,1.94-.39,3.83,1.26,5.05,1.37,1.02,2.94,1.61,4.73,1.51h0Z"/></g><g id="Ultralight-S"><path d="m597.73,641.44v5.18c-.17.43-.17.89-.29,1.34-.24.89-.49,1.77-.86,2.61-.62,1.43-1.46,2.74-2.47,3.94-1.12,1.31-2.38,2.46-3.74,3.5-.88.67-1.81,1.27-2.75,1.85-.31.19-.36.45-.18.7.53.74,1.02,1.52,1.71,2.14,1.26,1.15,2.76,1.82,4.38,2.25.54.15.84.59.76,1.14-.19,1.29-.62,2.51-1.17,3.68-.84,1.77-1.88,3.44-2.96,5.09-1.85,2.82-4.11,5.29-6.71,7.44-1.07.89-2.2,1.7-3.32,2.54-1.64,1.23-3.43,2.2-5.29,3.02-1.43.63-2.88,1.2-4.4,1.59-.29.08-.62.12-.9.33-.39.28-.44.69-.6,1.09-.36.88-.72,1.75-1.12,2.61-.93,2.01-2.31,3.59-4.09,4.85-.87.61-1.9.9-2.89,1.24h-2.8c-2.32-.61-4.18-1.9-5.62-3.79-1.12-1.47-1.9-3.11-2.48-4.86-.21-.64-.42-1.16-1.28-1.38-1.81-.45-3.54-1.17-5.25-1.94-2.01-.91-3.84-2.1-5.59-3.42-1.43-1.08-2.84-2.19-4.17-3.4-.83-.76-1.63-1.56-2.36-2.43-1.12-1.35-2.15-2.77-3.1-4.25-.83-1.28-1.57-2.62-2.26-3.97-.61-1.19-1.05-2.46-1.33-3.78-.16-.76.01-1.19.73-1.45.62-.23,1.26-.4,1.87-.66,1.76-.73,3.04-2.03,4.09-3.57.33-.49.3-.66-.21-.94-1.18-.64-2.28-1.4-3.3-2.26-1.66-1.41-3.2-2.91-4.37-4.77-1.24-1.96-1.98-4.09-2.28-6.39-.07-.56.03-1.13-.19-1.67v-1.55c.12-.05.11-.17.11-.27-.04-1.14.21-2.23.47-3.34.4-1.76,1.06-3.4,1.94-4.95,1.03-1.81,2.26-3.46,3.88-4.81,1.11-.93,2.34-1.67,3.65-2.25,1.42-.63,2.95-.94,4.51-1.02,1.09-.05,2.17.04,3.24.24,1.05.2,2.05.6,3.03,1.05,1.84.85,3.46,2,4.82,3.5.3.33.53.28.84.16.16-.06.31-.15.47-.21,1.19-.47,2.43-.79,3.68-1.02.19-.03.41-.04.46-.26.05-.23-.18-.31-.33-.42-1.91-1.4-3.86-2.74-5.64-4.31-1.28-1.14-2.5-2.32-3.51-3.72-.54-.74-.89-1.56-1.21-2.39-.33-.88.16-1.77,1-2.13.36-.16.75-.05,1.09-.25h.83c.69.2,1.42.09,2.12.29.39.11.78.26,1.18.33,1.53.28,3,.74,4.47,1.25,1.28.44,2.54.96,3.76,1.56,1.49.73,2.97,1.49,4.29,2.51.91.7,1.76,1.48,2.64,2.23.57.49.76.43,1.16-.17.61-.93.76-2.03,1.21-3.02.48-1.05,1.01-2.06,1.84-2.86.75-.72,1.66-.85,2.21-.05.78,1.12,1.05,2.43,1.24,3.75.1.68.1,1.38.26,2.04.34,1.4.31,2.83.45,4.24.06.67.01,1.34.01,2.02,0,.34.17.58.46.67.27.09.58.13.73-.26.04-.12.17-.21.27-.3,1.3-1.16,2.63-2.28,4.22-3.05,1.12-.55,2.29-.98,3.51-1.2,1.15-.21,2.34-.14,3.51-.11,1.47.03,2.87.41,4.21,1,1.24.54,2.38,1.29,3.42,2.19,1.25,1.08,2.3,2.32,3.24,3.67.82,1.19,1.47,2.47,1.97,3.82.35.95.67,1.92.81,2.94.06.43.2.85.3,1.28h0Zm-39.48,42.39c0-.81,0-1.62,0-2.43,0-.31-.08-.56-.44-.58-1.06-.07-2-.5-2.98-.85-1.2-.43-2.29-1.1-3.47-1.55-.53-.2-.91-.11-1.11.39-.28.69-.44,1.43-.28,2.16.3,1.41.26,2.85.58,4.26.27,1.19.48,2.4.83,3.57.37,1.24.79,2.48,1.36,3.66.94,1.92,2.2,3.53,4.12,4.55,1.41.75,2.9.84,4.37.28,2.04-.78,3.48-2.25,4.5-4.18.68-1.28,1.14-2.64,1.61-4.01.33-.96.54-1.97.74-2.96.21-1.07.34-2.15.49-3.23.17-1.27.4-2.55.15-3.84-.12-.61-.64-.91-1.22-.66-1.2.52-2.4,1.04-3.6,1.57-.94.41-1.9.75-2.93.84-.43.04-.55.34-.53.69.11,1.59-.03,3.17.02,4.76,0,.22.04.48-.13.64-.36.33-.77.59-1.29.42-.47-.15-.8-.67-.8-1.2,0-.76,0-1.52,0-2.28h0Zm26.12-20.82c.12-1.32-.34-2.53-.85-3.73-.6-1.41-1.54-2.58-2.61-3.67-1.24-1.27-2.68-2.22-4.37-2.72-1.56-.45-3.16-.58-4.79-.39-1.44.18-2.78.63-4.03,1.34-2.03,1.15-3.45,2.88-4.47,4.95-.91,1.85-1.16,3.77-.53,5.76.36,1.14,1.93,2,3.25,1.47,1.57-.62,3.08-1.45,4.84-1.54,1.13-.06,2.23.02,3.3.33,1.23.36,2.38.94,3.54,1.49,1.1.52,2.23.99,3.49.8.89-.13,1.69-.44,2.31-1.15.75-.85,1-1.84.92-2.97h0Zm-49.84.02c0,.45-.03.9.01,1.34.03.26.21.5.28.76.26.95,1.9,1.93,2.73,2.01,1.52.15,2.86-.43,4.17-1.01,1.3-.58,2.56-1.26,3.98-1.48,1.43-.22,2.87-.24,4.27.23,1.03.34,2.04.74,3.05,1.13,1.12.43,2.44-.08,3.01-1.15.37-.71.42-1.48.45-2.23.08-1.89-.54-3.59-1.58-5.14-.94-1.4-2.12-2.55-3.56-3.46-1.33-.85-2.74-1.47-4.29-1.58-1.68-.12-3.33.09-4.96.65-2.2.75-3.99,2.02-5.35,3.87-1.32,1.8-2.29,3.75-2.22,6.06h0Zm24.57,13.32c.65.04,1.3-.07,1.97-.19,1.42-.25,2.69-.73,3.73-1.78,1.54-1.58,1.46-3.29.17-4.82-1.1-1.31-2.64-1.82-4.31-2.02-1.76-.2-3.45-.07-5.05.74-.88.44-1.72.96-2.19,1.84-.99,1.84-.38,3.64,1.2,4.81,1.31.97,2.8,1.53,4.5,1.43h0Z"/></g></g></svg>